<svg xmlns="http://www.w3.org/2000/svg" width="144" height="32" fill="none"><path fill="#131316" d="m32.215 16.266-.017-.182c-.158-1.752-1.296-5.049-4.453-5.049-2.342 0-4.112 2.317-5.674 4.36-1.246 1.635-2.326 3.038-3.514 3.038-.316-.033-.722-.19-.971-.548-.225-.324-.283-.739-.167-1.237.183-.789 1.23-1.52 2.335-2.3.606-.415 1.229-.855 1.66-1.279 1.247-1.204 1.878-2.075 1.878-3.478 0-1.404-.772-2.101-1.42-2.4-1.296-.598-3.198-.249-4.411.797-.183.166-.365.324-.532.473C15.71 9.55 14.886 10.288 13 9.723v2.275c2.5 1.105 4.602-1.004 5.4-1.976.614-.64 1.262-1.013 1.744-1.013h.026a.728.728 0 0 1 .531.241c.216.249.299.54.258.864-.092.68-.798 1.478-2.094 2.35-1.52 1.02-4.062 2.731-4.262 4.882-.15 1.544.648 3.088 1.894 3.686 2.908 1.378 4.678-.996 6.555-3.504 1.437-1.934 2.8-3.77 4.693-3.77 1.704 0 2.335 1.412 2.335 2.3v.175l-.166.033c-4.13.731-6.38 4.6-6.38 6.386 0 1.784 1.512 3.312 3.372 3.312 2.177 0 4.868-1.86 5.3-7.09l.017-.192h1.72v-2.416h-1.728Zm-2.252 2.682c-.332 3.13-1.935 4.592-2.907 4.592-.44 0-1.056-.366-1.056-1.046 0-.764 1.139-3.081 3.698-3.77l.298-.075-.033.299ZM44.055 21.416V7.892h2.55v5.583h5.023V7.892h2.55v13.524h-2.55v-5.622h-5.023v5.622h-2.55ZM56.811 21.416v-9.583h2.434v9.583h-2.434Zm1.217-10.704a1.6 1.6 0 0 1-1.12-.425c-.297-.283-.445-.657-.445-1.12 0-.464.148-.837.445-1.12a1.6 1.6 0 0 1 1.12-.426c.451 0 .825.142 1.12.425.297.284.445.657.445 1.12 0 .464-.148.838-.444 1.121-.296.284-.67.425-1.12.425ZM64.281 25.357c-.721 0-1.3-.109-1.739-.328-.438-.219-.753-.502-.947-.85a2.36 2.36 0 0 1-.27-1.101c0-.49.116-.876.348-1.16.231-.283.457-.47.676-.56v-.31a2.63 2.63 0 0 1-.599-.598c-.18-.258-.27-.605-.27-1.043 0-.451.109-.805.328-1.063.232-.27.477-.464.734-.58v-.309l1.546.87a.876.876 0 0 0-.387.174c-.116.09-.173.244-.173.463 0 .22.077.38.231.483a.952.952 0 0 0 .541.155h2.609c1.133 0 1.99.238 2.57.715.592.476.888 1.152.888 2.028v.155c0 .863-.296 1.552-.889 2.067-.58.528-1.436.792-2.57.792h-2.627Zm.193-1.97h2.666c.348 0 .612-.078.793-.232.18-.155.27-.374.27-.657 0-.283-.09-.502-.27-.657-.18-.155-.445-.232-.793-.232h-2.666c-.348 0-.612.077-.792.232-.18.155-.27.374-.27.657 0 .283.09.502.27.657.18.154.444.232.792.232Zm1.005-6.801c.438 0 .805-.135 1.101-.406.296-.283.445-.663.445-1.14 0-.476-.149-.85-.445-1.12a1.531 1.531 0 0 0-1.101-.425c-.438 0-.805.141-1.101.425-.297.27-.445.644-.445 1.12 0 .477.148.857.445 1.14.296.27.663.406 1.1.406Zm0 1.97c-.721 0-1.372-.128-1.951-.386a3.118 3.118 0 0 1-1.353-1.16c-.322-.527-.483-1.171-.483-1.931v-.077c0-.76.161-1.392.483-1.894a3.117 3.117 0 0 1 1.353-1.16c.566-.257 1.204-.386 1.912-.386.297 0 .58.033.85.097.27.052.51.11.715.174h3.246v1.855h-1.526v.309c.103.167.187.36.25.58.065.219.098.463.098.734 0 1.03-.329 1.829-.986 2.395-.657.567-1.526.85-2.608.85ZM74.489 25.357c-.722 0-1.302-.109-1.74-.328-.437-.219-.753-.502-.946-.85a2.36 2.36 0 0 1-.27-1.101c0-.49.115-.876.347-1.16.232-.283.457-.47.676-.56v-.31a2.63 2.63 0 0 1-.599-.598c-.18-.258-.27-.605-.27-1.043 0-.451.11-.805.328-1.063.232-.27.477-.464.735-.58v-.309l1.545.87a.877.877 0 0 0-.386.174c-.116.09-.174.244-.174.463 0 .22.077.38.232.483a.952.952 0 0 0 .54.155h2.61c1.132 0 1.99.238 2.569.715.592.476.888 1.152.888 2.028v.155c0 .863-.296 1.552-.888 2.067-.58.528-1.437.792-2.57.792H74.49Zm.193-1.97h2.666c.348 0 .612-.078.792-.232.18-.155.27-.374.27-.657 0-.283-.09-.502-.27-.657-.18-.155-.444-.232-.792-.232h-2.666c-.348 0-.612.077-.793.232-.18.155-.27.374-.27.657 0 .283.09.502.27.657.18.154.445.232.793.232Zm1.004-6.801c.438 0 .805-.135 1.102-.406.296-.283.444-.663.444-1.14 0-.476-.148-.85-.444-1.12-.297-.284-.664-.425-1.102-.425-.438 0-.805.141-1.1.425-.297.27-.445.644-.445 1.12 0 .477.148.857.444 1.14.296.27.663.406 1.101.406Zm0 1.97c-.721 0-1.371-.128-1.951-.386a3.118 3.118 0 0 1-1.353-1.16c-.322-.527-.483-1.171-.483-1.931v-.077c0-.76.162-1.392.483-1.894a3.117 3.117 0 0 1 1.353-1.16c.567-.257 1.204-.386 1.913-.386.296 0 .58.033.85.097.27.052.509.11.715.174h3.246v1.855h-1.527v.309c.103.167.187.36.251.58.065.219.097.463.097.734 0 1.03-.329 1.829-.985 2.395-.657.567-1.527.85-2.609.85ZM86.112 21.686c-1.25 0-2.274-.27-3.072-.811-.799-.54-1.282-1.314-1.45-2.318l2.242-.58c.09.45.238.805.444 1.063.22.257.483.444.793.56.322.103.67.154 1.043.154.567 0 .985-.096 1.256-.29.27-.205.405-.457.405-.753a.743.743 0 0 0-.386-.676c-.258-.168-.67-.303-1.237-.406l-.54-.096a10.256 10.256 0 0 1-1.836-.522c-.554-.232-.998-.547-1.333-.947-.335-.4-.502-.914-.502-1.545 0-.954.347-1.681 1.043-2.184.695-.515 1.61-.773 2.743-.773 1.07 0 1.958.239 2.667.715.708.477 1.172 1.102 1.39 1.875l-2.26.695c-.103-.49-.315-.837-.637-1.043-.31-.206-.696-.31-1.16-.31-.463 0-.817.084-1.062.252a.735.735 0 0 0-.367.657c0 .309.128.54.386.695.258.142.605.251 1.043.329l.541.096c.722.129 1.372.303 1.952.522.592.206 1.056.509 1.39.908.349.386.522.915.522 1.584 0 1.005-.367 1.784-1.1 2.338-.722.541-1.695.811-2.918.811ZM93.66 21.416v-7.574h-2.435v-2.009h2.434v-1.777c0-.657.194-1.18.58-1.565.4-.4.914-.6 1.546-.6h2.318v2.01h-1.468c-.36 0-.541.193-.541.58v1.352h3.864v2.01h-3.864v7.573h-2.435Zm6.298 0v-9.583h2.434v9.583h-2.434Zm1.217-10.626c-.438 0-.811-.142-1.121-.425-.296-.284-.444-.657-.444-1.121 0-.464.148-.837.444-1.12.31-.284.683-.426 1.121-.426.451 0 .824.142 1.121.425.296.284.444.657.444 1.121 0 .464-.148.837-.444 1.12-.297.284-.67.426-1.121.426ZM109.46 21.686c-.953 0-1.796-.2-2.531-.598a4.452 4.452 0 0 1-1.7-1.72c-.399-.747-.599-1.623-.599-2.628v-.231c0-1.005.2-1.875.599-2.609a4.16 4.16 0 0 1 1.681-1.72c.721-.411 1.559-.617 2.512-.617.94 0 1.758.212 2.453.637a4.229 4.229 0 0 1 1.623 1.739c.387.734.58 1.59.58 2.57v.83h-6.975c.026.657.271 1.192.734 1.604.464.412 1.031.618 1.701.618.682 0 1.185-.148 1.507-.444.322-.296.566-.625.734-.986l1.99 1.044a6.288 6.288 0 0 1-.792 1.101c-.335.387-.786.721-1.353 1.005-.567.27-1.288.405-2.164.405Zm-2.337-6.163h4.482c-.052-.554-.277-.998-.676-1.333-.387-.335-.896-.502-1.527-.502-.657 0-1.178.167-1.565.502-.386.335-.624.78-.714 1.333ZM116.245 21.416V7.892h2.434v13.524h-2.434ZM125.241 21.686c-.76 0-1.475-.186-2.145-.56-.657-.386-1.185-.947-1.584-1.68-.399-.735-.599-1.624-.599-2.667v-.31c0-1.042.2-1.931.599-2.665.399-.735.927-1.288 1.584-1.662a4.156 4.156 0 0 1 2.145-.58c.58 0 1.063.071 1.449.213.399.129.721.296.966.502.245.207.431.425.56.657h.348V7.892h2.434v13.524h-2.395v-1.16h-.348c-.219.361-.56.69-1.024.986-.451.296-1.114.444-1.99.444Zm.734-2.125c.747 0 1.372-.238 1.874-.715.503-.49.754-1.198.754-2.125v-.193c0-.927-.251-1.63-.754-2.106-.489-.49-1.114-.734-1.874-.734-.747 0-1.372.244-1.874.734-.502.476-.754 1.178-.754 2.106v.193c0 .927.252 1.636.754 2.125.502.477 1.127.715 1.874.715Z"/></svg>
