<svg xmlns="http://www.w3.org/2000/svg" width="104" height="42" fill="none">
  <path stroke="#D9D9DE" stroke-width=".75"
    d="M57.31 32.9h.006c5.479-.594 10.693-3.231 13.977-7.646C68.857 36.8 55.547 43.82 44.601 39.175a5.513 5.513 0 0 1-2.474-2.05c-2.41-3.693-3.303-8.332-2.407-12.642 3.764 5.644 10.792 9.039 17.59 8.417Z" />
  <path stroke="#D9D9DE" stroke-width=".75"
    d="m39.004 19.618-.002.006c-2.221 5.01-2.527 10.81-.322 15.844-8.853-7.867-8.32-22.827 1.202-29.912a5.576 5.576 0 0 1 3.029-1.105c4.423-.228 8.913 1.322 12.226 4.245-6.8.42-13.275 4.761-16.133 10.922Z" />
  <path stroke="#D9D9DE" stroke-width=".75"
    d="m59.729 10.5-.006-.008c-3.249-4.42-8.171-7.575-13.666-8.2 11.13-3.713 24.059 4.32 25.523 15.929a5.477 5.477 0 0 1-.531 3.148c-2.006 3.975-5.622 7.112-9.883 8.484A19.11 19.11 0 0 0 59.729 10.5Z" />
</svg>
