<svg xmlns="http://www.w3.org/2000/svg" width="144" height="32" fill="none"><path fill="#131316" d="M53.69 11.58h3.201v13.118H53.69V11.58Zm-5.743 3.095h2.701v10.021h-3.174v-1.81c-.524 1.128-2.23 2.073-4.014 2.073-3.726 0-6.402-2.756-6.402-6.586 0-3.83 3.07-6.795 6.9-6.795h3.462v2.57c0 .29.21.525.525.525l.002.002Zm-.527.655c0-.314-.21-.524-.524-.524H44.01c-2.177 0-3.542 1.39-3.542 3.515 0 1.968 1.259 3.436 3.463 3.436 1.89 0 3.49-1.337 3.49-3.463V15.33Zm-18.994.551v8.815h3.2v-9.47c0-.314.21-.524.525-.524h4.38v-3.123h-4.197c-2.808 0-3.908 1.444-3.908 4.304v-.002Zm-1.837 2.02c0 3.831-3.07 6.795-6.9 6.795h-3.463v-2.57c0-.315-.21-.525-.524-.525H13V7.118h3.226v6.139c.577-1.182 2.178-1.941 3.963-1.941 3.725 0 6.402 2.755 6.402 6.585h-.002Zm-3.411.054c0-1.968-1.259-3.436-3.463-3.436-1.889 0-3.49 1.337-3.49 3.463v2.964c0 .314.21.524.524.524h2.887c2.178 0 3.542-1.39 3.542-3.515ZM68.46 11.58h-4.617c-2.833 0-3.936 1.443-3.936 4.303v8.815h3.201v-9.47c0-.315.21-.525.525-.525h5.01c.315 0 .525.21.525.525v9.47h3.2v-8.815c0-2.623-.864-4.303-3.908-4.303Zm47.751 5.246-2.203-.394c-1.206-.21-1.678-.603-1.678-1.312 0-.71.734-1.364 2.256-1.364 1.627 0 2.519.813 2.571 1.994h3.201c-.237-2.912-2.362-4.486-5.747-4.486-3.384 0-5.509 1.705-5.509 4.197s1.888 3.384 4.249 3.778l2.072.34c1.312.21 2.047.71 2.047 1.523 0 .92-1.076 1.417-2.571 1.417-1.679 0-2.781-.866-2.887-2.178h-3.332c.235 3.201 2.912 4.671 6.217 4.671 3.305 0 5.772-1.468 5.772-4.17 0-2.413-1.705-3.568-4.461-4.015l.003-.001Zm-12.725 4.224c0 .314-.21.524-.525.524h-4.748c-.314 0-.524-.21-.524-.524v-9.47h-3.202v8.79c0 2.622.866 4.328 3.909 4.328h4.355c2.834 0 3.936-1.443 3.936-4.303v-8.816h-3.201v9.471Zm-18.68-5.169v8.815h3.202v-9.47c0-.314.21-.524.524-.524h4.119v-3.123h-3.936c-2.808 0-3.908 1.444-3.908 4.304v-.002Zm-5.351-8.763h-3.201v4.46H73.84v2.99h2.413v6.114c0 2.991 1.39 4.014 4.014 4.014h2.336v-2.99h-1.312c-1.313 0-1.837-.579-1.837-1.81V14.57h3.567v-2.992h-3.567V7.12Zm-25.921 3.07h3.49v-3.07h-3.49v3.07Zm73.899 1.391V7.12h-3.201v4.46h-2.413v2.992h2.413v6.113c0 2.99 1.389 4.014 4.014 4.014h2.336v-2.99h-1.313c-1.312 0-1.836-.579-1.836-1.81v-5.326H131v-2.99h-3.567v-.003Z"/></svg>
