<svg xmlns="http://www.w3.org/2000/svg" width="144" height="32" fill="none"><g clip-path="url(#a)"><mask id="b" width="21" height="28" x="24" y="2" maskUnits="userSpaceOnUse" style="mask-type:luminance"><path fill="#fff" d="M24 2.238h20.643v27.524H24V2.238Z"/></mask><g fill="#131316" mask="url(#b)"><path d="M24.023 26.32c4.555 4.555 11.94 4.555 16.494 0 4.555-4.554 4.555-11.938 0-16.493l-2.062 2.062a8.747 8.747 0 1 1-12.37 12.37l-2.062 2.062Z"/><path d="M28.146 22.197a5.831 5.831 0 1 0 8.247-8.247l-2.061 2.062a2.916 2.916 0 1 1-4.124 4.123l-2.061 2.062ZM44.64 5.703c-4.554-4.555-11.939-4.555-16.494 0-4.554 4.555-4.554 11.94 0 16.494l2.062-2.062a8.747 8.747 0 0 1 12.37-12.37l2.062-2.062Z"/><path d="M40.52 9.827a5.831 5.831 0 0 0-8.248 8.247l2.062-2.062a2.916 2.916 0 0 1 4.124-4.123l2.061-2.062Z"/><path d="M44.64 5.703c-4.554-4.555-11.939-4.555-16.494 0-4.554 4.555-4.554 11.94 0 16.494l2.062-2.062a8.747 8.747 0 0 1 12.37-12.37l2.062-2.062Z"/><path d="M40.52 9.827a5.831 5.831 0 0 0-8.248 8.247l2.062-2.062a2.916 2.916 0 0 1 4.124-4.123l2.061-2.062Z"/></g><path fill="#131316" d="M58.295 17.643c0 1.454-1.038 2.175-2.032 2.175-1.08 0-1.801-.764-1.801-1.976v-5.728h-2.25v6.076c0 2.293 1.306 3.59 3.182 3.59 1.429 0 2.435-.75 2.87-1.82h.1v1.697h2.18v-9.543h-2.25v5.53Zm4.212 7.592h2.248v-5.082h.094c.354.696 1.093 1.671 2.733 1.671 2.249 0 3.933-1.783 3.933-4.926 0-3.18-1.734-4.908-3.94-4.908-1.683 0-2.385 1.013-2.727 1.702h-.13v-1.578h-2.212v13.121Zm2.205-8.35c0-1.85.795-3.05 2.243-3.05 1.497 0 2.267 1.274 2.267 3.05 0 1.79-.783 3.094-2.267 3.094-1.436 0-2.243-1.242-2.243-3.093Zm15.92-2.248c-.31-1.616-1.603-2.647-3.839-2.647-2.299 0-3.864 1.13-3.858 2.895-.006 1.392.851 2.311 2.684 2.69l1.628.342c.876.192 1.286.546 1.286 1.087 0 .652-.709 1.143-1.777 1.143-1.031 0-1.702-.447-1.895-1.305l-2.193.212c.28 1.752 1.752 2.789 4.094 2.789 2.386 0 4.07-1.236 4.075-3.044-.006-1.36-.882-2.193-2.683-2.584l-1.628-.348c-.97-.218-1.354-.553-1.348-1.106-.006-.646.708-1.093 1.646-1.093 1.038 0 1.584.565 1.758 1.192l2.05-.223Zm6.474-2.523h-1.881V9.828h-2.25v2.286h-1.354v1.74h1.355v5.305c-.013 1.796 1.292 2.678 2.982 2.628a4.523 4.523 0 0 0 1.323-.223l-.38-1.759c-.123.031-.378.087-.657.087-.566 0-1.02-.198-1.02-1.105v-4.933h1.882v-1.74Zm4.278 9.735c1.497 0 2.391-.702 2.801-1.503h.075v1.31h2.162V15.27c0-2.522-2.056-3.28-3.876-3.28-2.007 0-3.548.895-4.045 2.634l2.1.298c.224-.652.857-1.211 1.957-1.211 1.044 0 1.615.534 1.615 1.472v.038c0 .646-.677.677-2.36.857-1.852.199-3.622.752-3.622 2.901 0 1.876 1.372 2.87 3.193 2.87Zm.584-1.652c-.939 0-1.61-.429-1.61-1.255 0-.864.752-1.224 1.759-1.367.59-.08 1.77-.23 2.062-.466v1.125c0 1.062-.857 1.963-2.211 1.963Zm13.907-5.56c-.31-1.616-1.603-2.647-3.839-2.647-2.299 0-3.864 1.13-3.858 2.895-.006 1.392.851 2.311 2.684 2.69l1.628.342c.876.192 1.286.546 1.286 1.087 0 .652-.709 1.143-1.777 1.143-1.032 0-1.702-.447-1.895-1.305l-2.193.212c.28 1.752 1.752 2.789 4.094 2.789 2.385 0 4.069-1.236 4.075-3.044-.006-1.36-.882-2.193-2.683-2.584l-1.628-.348c-.969-.218-1.355-.553-1.348-1.106-.007-.646.708-1.093 1.646-1.093 1.037 0 1.584.565 1.758 1.192l2.05-.223Zm3.959 1.428c0-1.379.857-2.174 2.062-2.174 1.181 0 1.876.752 1.876 2.038v5.728h2.25V15.58c0-2.305-1.306-3.59-3.287-3.59-1.466 0-2.398.664-2.839 1.745h-.112V8.934h-2.199v12.723h2.249v-5.591Z"/></g><defs><clipPath id="a"><path fill="#fff" d="M24 2.238h95.11v27.524H24z"/></clipPath></defs></svg>
