<svg xmlns="http://www.w3.org/2000/svg" width="104" height="42" fill="none">
  <path fill="#D9D9DE"
    d="M50.955 16.235c.327-.482.685-.544.975-.544.29 0 .775.061 1.102.544 2.578 3.543 6.835 10.6 9.974 15.806 2.047 3.395 3.62 6.003 3.943 6.335 1.21 1.245 2.872.47 3.837-.944.95-1.391 1.214-2.368 1.214-3.41 0-.71-13.766-26.322-15.153-28.454C55.514 3.518 55.08 3 52.797 3H51.09c-2.275 0-2.604.518-3.937 2.568C45.767 7.7 32 33.312 32 34.022c0 1.042.264 2.019 1.214 3.41.965 1.413 2.626 2.19 3.837.944.323-.332 1.896-2.94 3.943-6.335 3.14-5.206 7.382-12.263 9.96-15.806Z" />
  <path fill="url(#paint0_linear_219_13859)" fill-opacity=".4"
    d="M50.955 16.235c.327-.482.685-.544.975-.544.29 0 .775.061 1.102.544 2.578 3.543 6.835 10.6 9.974 15.806 2.047 3.395 3.62 6.003 3.943 6.335 1.21 1.245 2.872.47 3.837-.944.95-1.391 1.214-2.368 1.214-3.41 0-.71-13.766-26.322-15.153-28.454C55.514 3.518 55.08 3 52.797 3H51.09c-2.275 0-2.604.518-3.937 2.568C45.767 7.7 32 33.312 32 34.022c0 1.042.264 2.019 1.214 3.41.965 1.413 2.626 2.19 3.837.944.323-.332 1.896-2.94 3.943-6.335 3.14-5.206 7.382-12.263 9.96-15.806Z"
    style="mix-blend-mode:overlay" />
  <defs>
    <linearGradient id="paint0_linear_219_13859" x1="52" x2="52" y1="3" y2="39" gradientUnits="userSpaceOnUse">
      <stop stop-color="#fff" />
      <stop offset=".775" stop-color="#fff" stop-opacity="0" />
    </linearGradient>
  </defs>
</svg>
