<svg xmlns="http://www.w3.org/2000/svg" width="144" height="32" fill="none"><path fill="#131316" d="M25.081 3.32c-.364.04-.724.08-1.081.13v12.353c.357-.048.717-.091 1.081-.13V3.32ZM27.816 15.487V3.12c-.36.015-.725.03-1.082.054v12.367c.36-.021.718-.04 1.082-.054ZM30.55 15.47V3.083a64.214 64.214 0 0 0-.843-.007c-.08 0-.159 0-.238.004v12.374c.364 0 .724.007 1.081.014ZM33.284 15.625V3.215c-.353-.03-.717-.051-1.08-.07v12.396c.363.022.724.051 1.08.084ZM36.01 15.962V3.522a71.97 71.97 0 0 0-1.08-.144v12.425c.367.047.728.101 1.08.16ZM38.745 16.52V4.04c-.353-.083-.71-.159-1.08-.235v12.461c.367.08.727.163 1.08.25v.004ZM41.48 17.375V4.835a22.303 22.303 0 0 0-1.082-.356v12.516c.375.12.736.246 1.082.38ZM44.214 18.72V6.067c-.331-.193-.695-.38-1.081-.562V18.1c.386.196.746.402 1.081.616v.004ZM45.867 7.28c.595.576.966 1.175 1.081 1.773v12.463c-.101-.523-.397-1.047-.868-1.555l-.213-.217V7.28Z"/><g opacity=".5"><path fill="url(#b)" d="M30.55 15.455h-1.081v13.468c.364 0 .724-.007 1.081-.018V15.451v.004Z"/><path fill="url(#c)" d="M33.284 15.47h-1.08v13.362c.363-.025.724-.05 1.08-.083V15.47Z"/><path fill="url(#d)" d="M36.01 15.8h-1.08v12.765a44.87 44.87 0 0 0 1.08-.156v-12.61Z"/><path fill="url(#e)" d="M38.745 16.128h-1.08v11.976c.367-.076.727-.16 1.08-.246v-11.73Z"/><path fill="url(#f)" d="M41.48 16.857h-1.082v10.541c.375-.116.732-.24 1.082-.366V16.857Z"/><path fill="url(#g)" d="M44.214 17.991h-1.081v8.349a13.71 13.71 0 0 0 1.081-.576V17.99Z"/><path fill="url(#h)" d="M45.867 19.744c.595.576.966 1.174 1.081 1.772v1.123c-.119.652-.49 1.283-1.08 1.877v-4.772Z"/></g><path fill="#131316" d="M61.064 21.042h2.34c2.779 0 4.418-1.84 4.418-4.719 0-2.88-1.64-4.739-4.419-4.739h-2.34v9.458Zm-1.58 1.42V10.184h3.94c3.598 0 5.958 2.399 5.958 6.138s-2.36 6.138-5.959 6.138h-3.939Zm16.666-4.74v-1.16c0-1.099-.82-1.779-2.119-1.779-.98 0-1.78.3-2.52.78v-1.42c.6-.42 1.66-.74 2.76-.74 2.1 0 3.34 1.16 3.34 3.04v6.018h-1.46v-.66c-.34.36-1.26.82-2.3.82-1.82 0-3.299-1.08-3.299-2.839 0-1.66 1.48-2.78 3.38-2.78.919 0 1.839.38 2.218.72Zm0 2.54v-.92c-.24-.66-1.12-1.1-2.059-1.1-1.08 0-2.12.48-2.12 1.54 0 1.08 1.04 1.58 2.12 1.58.94 0 1.82-.44 2.06-1.1Zm7.266 2.2h-1.48l-3.439-8.878h1.62l2.599 6.978 2.58-6.978h1.579l-3.46 8.877Zm6.66-8.878v8.877h-1.5v-8.877h1.5Zm.22-2.68c0 .52-.44.96-.98.96-.52 0-.96-.44-.96-.96 0-.54.44-.96.96-.96.54 0 .98.42.98.96Zm7.917 11.557v-1.04c-.44.64-1.4 1.22-2.5 1.22-2.599 0-3.998-2.1-3.998-4.619 0-2.499 1.4-4.618 3.998-4.618 1.1 0 2.06.58 2.5 1.22v-5.16h1.52v12.997h-1.52Zm0-2.639v-3.599c-.46-.92-1.34-1.46-2.28-1.46-1.7 0-2.699 1.38-2.699 3.26 0 1.879 1 3.259 2.7 3.259.94 0 1.819-.54 2.279-1.46Zm10.27-9.637h1.48l4.798 12.276h-1.599l-1.42-3.699h-5.058l-1.4 3.7h-1.6l4.799-12.277Zm.72 1.96-2 5.238h3.999l-1.999-5.239Zm9.012-1.96V22.46h-1.58V10.185h1.58Z"/><defs><linearGradient id="b" x1="30.009" x2="30.009" y1="13.947" y2="28.923" gradientUnits="userSpaceOnUse"><stop stop-color="#131316" stop-opacity="0"/><stop offset=".65" stop-color="#131316"/></linearGradient><linearGradient id="c" x1="32.744" x2="32.744" y1="13.977" y2="28.832" gradientUnits="userSpaceOnUse"><stop stop-color="#131316" stop-opacity="0"/><stop offset=".65" stop-color="#131316"/></linearGradient><linearGradient id="d" x1="35.47" x2="35.47" y1="14.374" y2="28.565" gradientUnits="userSpaceOnUse"><stop stop-color="#131316" stop-opacity="0"/><stop offset=".65" stop-color="#131316"/></linearGradient><linearGradient id="e" x1="38.205" x2="38.205" y1="14.791" y2="28.104" gradientUnits="userSpaceOnUse"><stop stop-color="#131316" stop-opacity="0"/><stop offset=".65" stop-color="#131316"/></linearGradient><linearGradient id="f" x1="40.939" x2="40.939" y1="15.68" y2="27.398" gradientUnits="userSpaceOnUse"><stop stop-color="#131316" stop-opacity="0"/><stop offset=".65" stop-color="#131316"/></linearGradient><linearGradient id="g" x1="43.673" x2="43.673" y1="17.059" y2="26.34" gradientUnits="userSpaceOnUse"><stop stop-color="#131316" stop-opacity="0"/><stop offset=".65" stop-color="#131316"/></linearGradient><linearGradient id="h" x1="46.408" x2="46.408" y1="19.211" y2="24.516" gradientUnits="userSpaceOnUse"><stop stop-color="#131316" stop-opacity="0"/><stop offset=".65" stop-color="#131316"/></linearGradient></defs></svg>
