<svg xmlns="http://www.w3.org/2000/svg" width="104" height="42" fill="none">
  <path fill="#F44250"
    d="M63.984 21a3.987 3.987 0 0 1-1.17 2.828A3.98 3.98 0 0 1 59.99 25a3.976 3.976 0 0 0-2.824 1.171A3.99 3.99 0 0 0 55.995 29a3.987 3.987 0 0 1-1.17 2.828A3.98 3.98 0 0 1 52 33a3.977 3.977 0 0 1-2.824-1.172A3.987 3.987 0 0 1 48.006 29a3.99 3.99 0 0 1 1.17-2.829A3.976 3.976 0 0 1 52 25a3.98 3.98 0 0 0 2.825-1.172A3.987 3.987 0 0 0 55.995 21c0-2.21-1.788-4-3.995-4a3.977 3.977 0 0 1-2.824-1.172A3.987 3.987 0 0 1 48.006 13a3.99 3.99 0 0 1 1.17-2.829A3.976 3.976 0 0 1 52 9a3.997 3.997 0 0 1 3.995 4c0 1.105.447 2.105 1.17 2.828A3.977 3.977 0 0 0 59.99 17a3.997 3.997 0 0 1 3.995 4Z" />
  <path fill="#fff"
    d="M48.005 21c0-2.21-1.788-4-3.994-4a3.997 3.997 0 0 0-3.995 4c0 2.21 1.789 4 3.995 4a3.997 3.997 0 0 0 3.994-4ZM40.016 29c0-2.21-1.789-4-3.995-4a3.997 3.997 0 0 0-3.995 4c0 2.21 1.789 4 3.995 4a3.997 3.997 0 0 0 3.995-4ZM71.973 29c0-2.21-1.788-4-3.994-4a3.997 3.997 0 0 0-3.995 4c0 2.21 1.788 4 3.995 4a3.997 3.997 0 0 0 3.994-4Z" />
</svg>
