<svg xmlns="http://www.w3.org/2000/svg" width="104" height="42" fill="none">
  <path fill="#61DAFB" fill-rule="evenodd"
    d="M61.023 5.37c1.497.865 2.338 3.203 1.965 6.896-.022.217-.048.437-.078.66a34.32 34.32 0 0 0-5.576-1.165 34.327 34.327 0 0 0-3.797-4.246c.178-.138.355-.27.532-.398 3.011-2.17 5.457-2.61 6.954-1.747ZM52 6.18c-.3-.241-.601-.47-.9-.686-3.123-2.25-6.52-3.358-9.124-1.855-2.602 1.502-3.341 5-2.954 8.828.037.367.085.742.143 1.123-.359.14-.707.286-1.044.438-3.51 1.579-6.169 3.967-6.169 6.972 0 3.006 2.66 5.394 6.169 6.973.336.152.684.297 1.043.438-.058.38-.106.755-.143 1.122-.387 3.83.352 7.326 2.955 8.829 2.602 1.503 6 .394 9.123-1.856.3-.216.6-.444.9-.685.302.24.602.47.902.685 3.122 2.25 6.52 3.359 9.123 1.856 2.603-1.503 3.341-5 2.954-8.829a22.206 22.206 0 0 0-.143-1.123c.359-.14.707-.285 1.044-.437 3.51-1.58 6.168-3.967 6.168-6.973 0-3.005-2.659-5.393-6.168-6.973a22.168 22.168 0 0 0-1.044-.437c.058-.381.105-.756.143-1.123.387-3.83-.352-7.326-2.955-8.829-2.603-1.502-6-.394-9.123 1.856-.3.216-.6.444-.9.685Zm0 2.637c-.86.79-1.72 1.69-2.565 2.687a43.462 43.462 0 0 1 5.13 0A30.273 30.273 0 0 0 52 8.817Zm-5.335 2.944c-1.999.255-3.876.651-5.575 1.166a19.9 19.9 0 0 1-.078-.661c-.373-3.692.468-6.031 1.964-6.895 1.497-.865 3.943-.424 6.954 1.746.177.127.355.26.533.398a34.327 34.327 0 0 0-3.798 4.246Zm-1.608 2.27a43.487 43.487 0 0 0-2.563 4.44c-.44-1.229-.79-2.424-1.045-3.562a30.261 30.261 0 0 1 3.608-.877ZM43.51 21a40.639 40.639 0 0 1 1.932-3.785 40.679 40.679 0 0 1 2.312-3.566 40.69 40.69 0 0 1 4.246-.22c1.464 0 2.885.077 4.245.22a40.684 40.684 0 0 1 2.312 3.567 40.659 40.659 0 0 1 1.933 3.784 40.681 40.681 0 0 1-1.934 3.787 40.688 40.688 0 0 1-2.312 3.567 40.67 40.67 0 0 1-4.244.219c-1.464 0-2.885-.076-4.245-.22a40.694 40.694 0 0 1-2.312-3.566 40.672 40.672 0 0 1-1.933-3.787Zm-2.179 0a34.324 34.324 0 0 1-1.778-5.41c-.209.085-.412.173-.612.262-3.384 1.523-4.989 3.421-4.989 5.15 0 1.728 1.605 3.625 4.99 5.148.198.09.402.177.61.263.404-1.73 1-3.553 1.78-5.413Zm.117 6.093a30.23 30.23 0 0 1 1.046-3.565 43.528 43.528 0 0 0 2.564 4.442 30.26 30.26 0 0 1-3.61-.877Zm-.359 1.982c-.03.223-.056.443-.078.66-.373 3.693.468 6.032 1.965 6.896 1.496.864 3.942.423 6.953-1.747.178-.127.355-.26.534-.398a34.32 34.32 0 0 1-3.797-4.246c-2-.255-3.877-.65-5.577-1.165Zm12.447 5.411c.179.138.357.271.534.399 3.011 2.17 5.457 2.61 6.954 1.746 1.497-.864 2.338-3.203 1.965-6.895a19.91 19.91 0 0 0-.079-.661c-1.7.514-3.577.91-5.577 1.165a34.313 34.313 0 0 1-3.797 4.246Zm1.027-3.988A30.258 30.258 0 0 1 52 33.183a30.273 30.273 0 0 1-2.564-2.686 43.431 43.431 0 0 0 5.127 0Zm4.378-2.528a30.272 30.272 0 0 0 3.61-.877 30.251 30.251 0 0 0-1.045-3.565 43.49 43.49 0 0 1-2.565 4.442Zm3.727-6.97a34.33 34.33 0 0 1 1.78 5.413c.208-.086.411-.173.61-.263 3.384-1.523 4.99-3.42 4.99-5.149 0-1.728-1.606-3.626-4.99-5.149-.199-.09-.403-.177-.612-.263-.404 1.73-1 3.553-1.778 5.411Zm-.118-6.09a30.263 30.263 0 0 0-3.608-.877 43.45 43.45 0 0 1 2.564 4.44c.44-1.23.789-2.425 1.044-3.563ZM55.81 21a3.81 3.81 0 1 1-7.62 0 3.81 3.81 0 0 1 7.62 0Z"
    clip-rule="evenodd" />
  <path fill="url(#paint0_linear_485_6372)" fill-opacity=".4" fill-rule="evenodd"
    d="M61.023 5.37c1.497.865 2.338 3.203 1.965 6.896-.022.217-.048.437-.078.66a34.32 34.32 0 0 0-5.576-1.165 34.327 34.327 0 0 0-3.797-4.246c.178-.138.355-.27.532-.398 3.011-2.17 5.457-2.61 6.954-1.747ZM52 6.18c-.3-.241-.601-.47-.9-.686-3.123-2.25-6.52-3.358-9.124-1.855-2.602 1.502-3.341 5-2.954 8.828.037.367.085.742.143 1.123-.359.14-.707.286-1.044.438-3.51 1.579-6.169 3.967-6.169 6.972 0 3.006 2.66 5.394 6.169 6.973.336.152.684.297 1.043.438-.058.38-.106.755-.143 1.122-.387 3.83.352 7.326 2.955 8.829 2.602 1.503 6 .394 9.123-1.856.3-.216.6-.444.9-.685.302.24.602.47.902.685 3.122 2.25 6.52 3.359 9.123 1.856 2.603-1.503 3.341-5 2.954-8.829a22.206 22.206 0 0 0-.143-1.123c.359-.14.707-.285 1.044-.437 3.51-1.58 6.168-3.967 6.168-6.973 0-3.005-2.659-5.393-6.168-6.973a22.168 22.168 0 0 0-1.044-.437c.058-.381.105-.756.143-1.123.387-3.83-.352-7.326-2.955-8.829-2.603-1.502-6-.394-9.123 1.856-.3.216-.6.444-.9.685Zm0 2.637c-.86.79-1.72 1.69-2.565 2.687a43.462 43.462 0 0 1 5.13 0A30.273 30.273 0 0 0 52 8.817Zm-5.335 2.944c-1.999.255-3.876.651-5.575 1.166a19.9 19.9 0 0 1-.078-.661c-.373-3.692.468-6.031 1.964-6.895 1.497-.865 3.943-.424 6.954 1.746.177.127.355.26.533.398a34.327 34.327 0 0 0-3.798 4.246Zm-1.608 2.27a43.487 43.487 0 0 0-2.563 4.44c-.44-1.229-.79-2.424-1.045-3.562a30.261 30.261 0 0 1 3.608-.877ZM43.51 21a40.639 40.639 0 0 1 1.932-3.785 40.679 40.679 0 0 1 2.312-3.566 40.69 40.69 0 0 1 4.246-.22c1.464 0 2.885.077 4.245.22a40.684 40.684 0 0 1 2.312 3.567 40.659 40.659 0 0 1 1.933 3.784 40.681 40.681 0 0 1-1.934 3.787 40.688 40.688 0 0 1-2.312 3.567 40.67 40.67 0 0 1-4.244.219c-1.464 0-2.885-.076-4.245-.22a40.694 40.694 0 0 1-2.312-3.566 40.672 40.672 0 0 1-1.933-3.787Zm-2.179 0a34.324 34.324 0 0 1-1.778-5.41c-.209.085-.412.173-.612.262-3.384 1.523-4.989 3.421-4.989 5.15 0 1.728 1.605 3.625 4.99 5.148.198.09.402.177.61.263.404-1.73 1-3.553 1.78-5.413Zm.117 6.093a30.23 30.23 0 0 1 1.046-3.565 43.528 43.528 0 0 0 2.564 4.442 30.26 30.26 0 0 1-3.61-.877Zm-.359 1.982c-.03.223-.056.443-.078.66-.373 3.693.468 6.032 1.965 6.896 1.496.864 3.942.423 6.953-1.747.178-.127.355-.26.534-.398a34.32 34.32 0 0 1-3.797-4.246c-2-.255-3.877-.65-5.577-1.165Zm12.447 5.411c.179.138.357.271.534.399 3.011 2.17 5.457 2.61 6.954 1.746 1.497-.864 2.338-3.203 1.965-6.895a19.91 19.91 0 0 0-.079-.661c-1.7.514-3.577.91-5.577 1.165a34.313 34.313 0 0 1-3.797 4.246Zm1.027-3.988A30.258 30.258 0 0 1 52 33.183a30.273 30.273 0 0 1-2.564-2.686 43.431 43.431 0 0 0 5.127 0Zm4.378-2.528a30.272 30.272 0 0 0 3.61-.877 30.251 30.251 0 0 0-1.045-3.565 43.49 43.49 0 0 1-2.565 4.442Zm3.727-6.97a34.33 34.33 0 0 1 1.78 5.413c.208-.086.411-.173.61-.263 3.384-1.523 4.99-3.42 4.99-5.149 0-1.728-1.606-3.626-4.99-5.149-.199-.09-.403-.177-.612-.263-.404 1.73-1 3.553-1.778 5.411Zm-.118-6.09a30.263 30.263 0 0 0-3.608-.877 43.45 43.45 0 0 1 2.564 4.44c.44-1.23.789-2.425 1.044-3.563ZM55.81 21a3.81 3.81 0 1 1-7.62 0 3.81 3.81 0 0 1 7.62 0Z"
    clip-rule="evenodd" style="mix-blend-mode:overlay" />
  <defs>
    <linearGradient id="paint0_linear_485_6372" x1="52" x2="52" y1="2.95" y2="39.051" gradientUnits="userSpaceOnUse">
      <stop stop-color="#fff" />
      <stop offset=".775" stop-color="#fff" stop-opacity="0" />
    </linearGradient>
  </defs>
</svg>
