<svg xmlns="http://www.w3.org/2000/svg" width="104" height="42" fill="none">
  <path fill="#D9D9DE" fill-rule="evenodd"
    d="m47.365 13 10.19 13.19V13h2.667v16.643l4.95 6.407A19.944 19.944 0 0 0 72 21C72 9.954 63.046 1 52 1S32 9.954 32 21s8.954 20 20 20a19.907 19.907 0 0 0 11.054-3.33L46.692 16.42v12.574H44V13h3.365Zm.077 5.622v11.121H43.25V12.25h4.483l9.073 11.743V12.25h4.166v17.137l4.296 5.56A19.193 19.193 0 0 0 71.25 21c0-10.632-8.618-19.25-19.25-19.25S32.75 10.368 32.75 21c0 10.631 8.618 19.25 19.25 19.25 3.646 0 7.054-1.013 9.959-2.773L47.442 18.622Z"
    clip-rule="evenodd" />
</svg>
