<svg xmlns="http://www.w3.org/2000/svg" fill="none" viewBox="0 0 144 32"><g clip-path="url(#a)"><mask id="b" width="110" height="25" x="17" y="4" maskUnits="userSpaceOnUse" style="mask-type:luminance"><path fill="#fff" d="M127 4H17v25h110V4Z"/></mask><g fill="#000" mask="url(#b)"><path d="M29.289 4h-4.096v4.167h4.096V4ZM37.481 4h-4.096v4.167h4.096V4ZM25.192 8.166h-4.096v4.167h4.096V8.166Z"/><path d="M33.385 8.166H29.29v4.167h4.096V8.166ZM41.578 8.166H37.48v4.167h4.097V8.166ZM21.096 12.334H17V16.5h4.096v-4.166ZM29.289 12.334h-4.096V16.5h4.096v-4.166ZM21.096 16.5H17v4.167h4.096V16.5ZM29.289 16.5h-4.096v4.167h4.096V16.5ZM25.192 20.666h-4.096v4.167h4.096v-4.166ZM33.385 20.666H29.29v4.167h4.096v-4.166ZM41.578 20.666H37.48v4.167h4.097v-4.166ZM29.289 24.834h-4.096V29h4.096v-4.166ZM37.481 24.834h-4.096V29h4.096v-4.166ZM58.561 22.404c1.823 0 2.82-1.152 3.53-3.435h1.055l-.403 3.454c-1.208.683-2.551 1.132-4.565 1.132-4.01 0-6.541-2.83-6.541-6.752 0-4.546 2.992-7.336 6.77-7.336 1.958 0 3.358.527 4.279 1.288v3.044H61.65c-.518-2.166-1.612-3.2-3.338-3.2-2.839 0-4.01 2.614-4.01 5.639 0 3.531 1.44 6.166 4.26 6.166Zm10.042-.469c.749 0 1.267-.214 1.919-.683v-3.414l-2.245.878c-.71.273-1.112.8-1.112 1.541 0 1.073.518 1.678 1.438 1.678Zm4.24-5.658c0 .468-.058 3.922-.058 4.526 0 .781.25 1.23.787 1.23.172 0 .594-.04.882-.117l.115.624c-.652.663-1.38 1.015-2.187 1.015-1.016 0-1.573-.722-1.803-1.776-.671.82-1.707 1.756-3.165 1.756-1.707 0-2.59-1.17-2.59-2.673 0-1.795 1.362-2.42 2.648-2.868l3.05-1.112v-1.035c0-1.268-.384-2.126-1.65-2.126-.94 0-1.4.468-1.4 1.365 0 .371.038.703.134 1.113l-1.688.253c-.365-.253-.537-.624-.537-1.15 0-1.698 1.63-2.596 3.836-2.596 2.36 0 3.626 1.073 3.626 3.57Zm6.23-3.61v3.2c1.093-2.38 1.668-3.161 2.896-3.161.345 0 .595.117.748.254v2.146h-.422c-1.19 0-2.09.156-3.222 1.405v4.82c0 .936.46.995 1.764 1.15v.879H75.37v-.878c.844-.117 1.381-.215 1.381-1.113v-6.36l-1.285-.84v-.487l3.05-1.015h.556Zm8.043-2.068V12.9h2.82v1.17h-2.82v6.576c0 1.035.441 1.405 1.42 1.405.537 0 1.17-.156 1.65-.41l.249.605c-.73.8-1.784 1.308-3.108 1.308-1.535 0-2.513-.742-2.513-2.537v-6.946h-1.381v-.742c1.074-.566 2.11-1.483 2.992-2.731h.691Zm8.917 2.107c2.609 0 3.971 1.873 3.971 4.39v.644h-6.695c0 2.361 1.304 3.942 3.338 3.942 1.361 0 2.263-.644 2.954-1.58l.422.253c-.48 1.892-1.938 3.2-4.182 3.2-2.82 0-4.604-2.166-4.604-5.093 0-3.454 2.072-5.756 4.796-5.756Zm-.307 1.073c-1.381 0-2.206 1.386-2.36 2.966h4.47c0-1.795-.71-2.966-2.11-2.966Zm9.668 9.776c-1.381 0-2.685-.313-3.625-1.015l-.115-2.517h.997c.364 1.6 1.266 2.537 2.801 2.537 1.131 0 1.86-.527 1.86-1.464 0-1.112-.767-1.502-2.493-1.99-1.938-.566-3.07-1.385-3.07-3.24 0-1.911 1.382-3.16 3.549-3.16 1.324 0 2.417.332 3.261.839v2.341h-.978c-.288-1.424-1.055-2.165-2.36-2.165-.997 0-1.572.604-1.572 1.405 0 .956.633 1.463 2.205 1.892 1.976.546 3.338 1.23 3.338 3.278 0 1.932-1.419 3.259-3.798 3.259Zm8.953-10.849v8.663c0 .898.518.995 1.381 1.113v.878h-5.084v-.878c.844-.117 1.382-.215 1.382-1.113v-6.4l-1.286-.82v-.467l3.07-.976h.537Zm-1.228-1.17a1.446 1.446 0 0 1-1.477-1.464c0-.8.614-1.464 1.477-1.464.844 0 1.458.664 1.458 1.464 0 .8-.614 1.463-1.458 1.463Zm7.768 10.4c.748 0 1.266-.215 1.918-.684v-3.414l-2.244.878c-.71.273-1.113.8-1.113 1.541 0 1.073.518 1.678 1.439 1.678Zm4.24-5.66c0 .469-.058 3.923-.058 4.527 0 .781.249 1.23.786 1.23.173 0 .595-.04.883-.117l.115.624c-.652.663-1.381 1.015-2.187 1.015-1.017 0-1.573-.722-1.803-1.776-.671.82-1.707 1.756-3.165 1.756-1.707 0-2.59-1.17-2.59-2.673 0-1.795 1.362-2.42 2.647-2.868l3.05-1.112v-1.035c0-1.268-.383-2.126-1.649-2.126-.94 0-1.401.468-1.401 1.365 0 .371.039.703.135 1.113l-1.688.253c-.365-.253-.537-.624-.537-1.15 0-1.698 1.63-2.596 3.836-2.596 2.359 0 3.626 1.073 3.626 3.57Z"/></g></g><defs><clipPath id="a"><path fill="#fff" d="M17 4h110v25H17z"/></clipPath></defs></svg>