<svg xmlns="http://www.w3.org/2000/svg" width="104" height="42" fill="none">
  <path fill="#F3B01C"
    d="M57.276 32.527c5.956-.646 11.57-3.743 14.663-8.913-1.464 12.787-15.79 20.87-27.485 15.907a5.887 5.887 0 0 1-2.642-2.19c-2.627-4.027-3.491-9.152-2.25-13.803 3.546 5.974 10.757 9.636 17.714 9Z" />
  <path fill="#8D2676"
    d="M39.345 19.776c-2.415 5.445-2.52 11.82.44 17.067-10.416-7.649-10.302-24.016-.127-31.588a5.951 5.951 0 0 1 3.233-1.179c4.824-.248 9.725 1.571 13.163 4.962-6.984.068-13.786 4.434-16.71 10.738Z" />
  <path fill="#EE342F"
    d="M59.421 10.714c-3.523-4.795-9.039-8.06-15.081-8.158C56.02-2.62 70.388 5.77 71.952 18.174a5.851 5.851 0 0 1-.569 3.364c-2.182 4.325-6.228 7.68-10.957 8.922a18.736 18.736 0 0 0-1.005-19.746Z" />
</svg>
