<svg xmlns="http://www.w3.org/2000/svg" width="104" height="42" fill="none">
  <path stroke="#D9D9DE" stroke-width=".75"
    d="M62.523 23.563A3.612 3.612 0 0 0 63.583 21a3.622 3.622 0 0 0-3.62-3.625c-1.207 0-2.3-.49-3.09-1.282A4.362 4.362 0 0 1 55.593 13a3.622 3.622 0 0 0-3.62-3.625c-1 0-1.904.405-2.558 1.061A3.615 3.615 0 0 0 48.353 13c0 1.002.405 1.907 1.06 2.563a3.602 3.602 0 0 0 2.56 1.062A4.372 4.372 0 0 1 56.343 21a4.361 4.361 0 0 1-1.28 3.093 4.355 4.355 0 0 1-3.09 1.282c-1 0-1.905.405-2.56 1.061A3.615 3.615 0 0 0 48.354 29c0 1.002.405 1.907 1.06 2.563a3.602 3.602 0 0 0 2.56 1.062c.999 0 1.903-.405 2.56-1.062A3.612 3.612 0 0 0 55.593 29c0-1.208.489-2.302 1.279-3.094l5.65-2.343Zm0 0a3.605 3.605 0 0 1-2.56 1.062m2.56-1.062-2.56 1.062m0 0c-1.207 0-2.3.49-3.09 1.281l3.09-1.281Zm-15.979-7.25A3.622 3.622 0 0 1 47.604 21a3.622 3.622 0 0 1-3.62 3.625A3.622 3.622 0 0 1 40.364 21a3.622 3.622 0 0 1 3.62-3.625Zm-7.99 8A3.622 3.622 0 0 1 39.615 29a3.622 3.622 0 0 1-3.62 3.625A3.622 3.622 0 0 1 32.376 29a3.622 3.622 0 0 1 3.62-3.625Zm31.958 0A3.622 3.622 0 0 1 71.572 29a3.622 3.622 0 0 1-3.62 3.625A3.622 3.622 0 0 1 64.332 29a3.622 3.622 0 0 1 3.62-3.625Z" />
</svg>
