<svg xmlns="http://www.w3.org/2000/svg" width="144" height="32" fill="none"><path fill="#131316" d="M52.573 15.51c0 1.292-.242 2.4-.715 3.322a5.192 5.192 0 0 1-4.73 2.884 5.168 5.168 0 0 1-4.73-2.884c-.484-.923-.714-2.042-.714-3.322 0-1.292.23-2.4.703-3.322a5.178 5.178 0 0 1 4.741-2.884 5.19 5.19 0 0 1 4.73 2.884c.473.922.715 2.03.715 3.322Zm-1.81 0c0-.98-.162-1.811-.474-2.492a3.53 3.53 0 0 0-1.303-1.534c-.542-.346-1.165-.52-1.858-.52a3.461 3.461 0 0 0-1.868.52c-.542.346-.97.865-1.292 1.534-.312.68-.473 1.5-.473 2.492 0 .98.161 1.81.473 2.48a3.542 3.542 0 0 0 1.292 1.534c.553.346 1.176.53 1.868.53.693 0 1.316-.172 1.858-.53.553-.346.98-.853 1.303-1.534.312-.67.473-1.5.473-2.48Zm3.921 9.436V12.487h1.73v1.466h.15c.104-.185.243-.404.439-.646a2.537 2.537 0 0 1 2.157-.935 3.53 3.53 0 0 1 3.31 2.146c.335.692.497 1.534.497 2.514 0 .981-.162 1.823-.485 2.515a3.807 3.807 0 0 1-1.35 1.615 3.46 3.46 0 0 1-1.96.566c-.543 0-.992-.093-1.339-.277a2.536 2.536 0 0 1-.819-.646 6.47 6.47 0 0 1-.461-.67h-.092v4.81h-1.765m1.73-7.924c0 .634.08 1.188.265 1.673.185.484.462.853.808 1.119.346.276.773.403 1.28.403.531 0 .97-.138 1.327-.415.346-.288.623-.669.807-1.153a4.538 4.538 0 0 0 .277-1.627c0-.6-.092-1.142-.277-1.615a2.503 2.503 0 0 0-.807-1.119 2.076 2.076 0 0 0-1.327-.415c-.507 0-.934.127-1.292.392-.346.265-.611.634-.807 1.107a4.613 4.613 0 0 0-.265 1.65h.011Zm12.412 4.695c-.9 0-1.66-.185-2.307-.577a3.805 3.805 0 0 1-1.488-1.615c-.346-.692-.519-1.523-.519-2.457 0-.923.173-1.742.52-2.457a4.037 4.037 0 0 1 1.464-1.661 4.442 4.442 0 0 1 3.692-.346 3.61 3.61 0 0 1 2.191 2.215c.231.577.335 1.269.335 2.1v.622h-7.21v-1.326h5.48c0-.462-.093-.877-.289-1.235a2.145 2.145 0 0 0-1.984-1.153c-.496 0-.923.115-1.292.346a2.572 2.572 0 0 0-1.153 2.215v1.038c0 .6.115 1.107.322 1.534.22.427.52.75.9.969.412.23.878.345 1.35.334.346 0 .646-.046.923-.15a1.893 1.893 0 0 0 1.176-1.153l1.662.311c-.127.496-.37.923-.716 1.292-.346.37-.773.646-1.292.854a4.81 4.81 0 0 1-1.765.3Zm7.614-5.56v5.387h-1.765v-9.055h1.719v1.476h.115a2.51 2.51 0 0 1 .98-1.154c.439-.3 1.004-.438 1.685-.438.623 0 1.153.127 1.615.38.473.266.83.647 1.084 1.154.276.588.41 1.232.392 1.88v5.769h-1.765v-5.56a2.192 2.192 0 0 0-.519-1.535c-.346-.38-.807-.565-1.407-.565a2.193 2.193 0 0 0-1.084.265 1.892 1.892 0 0 0-.75.785c-.194.377-.29.798-.277 1.222l-.023-.011Zm8.305 5.387V9.465h4.303c.923 0 1.708.162 2.33.485.623.323 1.085.773 1.385 1.338.317.604.475 1.279.461 1.96 0 .75-.15 1.397-.461 1.962a3.149 3.149 0 0 1-1.385 1.303c-.622.312-1.407.462-2.341.462h-3.253v-1.569h3.091c.589 0 1.073-.08 1.442-.254.37-.161.646-.415.808-.738.182-.357.273-.753.265-1.154 0-.461-.08-.853-.254-1.188a1.753 1.753 0 0 0-.819-.773 3.38 3.38 0 0 0-1.465-.265H86.57v10.52h-1.812m5.964-5.456 2.977 5.457H91.62l-2.918-5.457h2.018Zm8.421 5.63a3.933 3.933 0 0 1-3.691-2.215 5.422 5.422 0 0 1-.53-2.457c0-.935.172-1.754.518-2.458a3.934 3.934 0 0 1 3.692-2.226 3.936 3.936 0 0 1 3.691 2.226 5.18 5.18 0 0 1 .542 2.458c.018.849-.163 1.69-.53 2.457a3.934 3.934 0 0 1-3.692 2.214Zm0-1.477c.554 0 1.016-.15 1.373-.438.358-.289.623-.681.808-1.154.175-.52.261-1.066.253-1.615 0-.577-.08-1.096-.253-1.592a2.634 2.634 0 0 0-.808-1.165 2.098 2.098 0 0 0-1.373-.438c-.553 0-1.015.138-1.384.438a2.9 2.9 0 0 0-.807 1.177 4.67 4.67 0 0 0-.254 1.592 4.7 4.7 0 0 0 .265 1.591c.173.485.438.877.808 1.166.357.288.819.438 1.384.438h-.012Zm11.94-2.457v-5.306h1.765v9.067h-1.731v-1.58h-.092a2.813 2.813 0 0 1-2.711 1.695 3.002 3.002 0 0 1-1.546-.392 2.658 2.658 0 0 1-1.038-1.154 4.185 4.185 0 0 1-.392-1.869v-5.767h1.765v5.548c-.029.54.153 1.07.508 1.477.346.369.795.553 1.338.553a2.19 2.19 0 0 0 1.811-1.003c.219-.335.323-.762.323-1.27Zm8.363-5.306v1.418h-4.96v-1.418h4.96Zm-3.622-2.17h1.765v8.572c0 .346.046.6.15.773.104.161.23.288.404.346.161.057.346.092.53.092.208-.024.416-.05.623-.08l.312 1.453a3.141 3.141 0 0 1-1.154.196c-.461 0-.888-.08-1.292-.254a2.224 2.224 0 0 1-.969-.808c-.242-.346-.369-.807-.369-1.35v-8.94Zm9.471 11.421c-.889 0-1.662-.196-2.308-.577a3.884 3.884 0 0 1-1.476-1.626c-.346-.692-.531-1.523-.531-2.457-.018-.85.164-1.691.531-2.457.346-.704.83-1.27 1.453-1.662a4.442 4.442 0 0 1 3.692-.346 3.612 3.612 0 0 1 2.192 2.215c.23.577.346 1.27.346 2.1v.623h-7.222v-1.327h5.468a2.66 2.66 0 0 0-.277-1.234 2.154 2.154 0 0 0-1.995-1.154c-.496 0-.923.116-1.292.346a2.64 2.64 0 0 0-1.142 2.215v1.038c0 .6.104 1.108.323 1.535.207.426.507.75.899.968.413.23.878.346 1.35.335.31.001.618-.05.911-.15a1.915 1.915 0 0 0 1.177-1.142l1.661.3a3.002 3.002 0 0 1-.715 1.292 3.46 3.46 0 0 1-1.292.854 4.798 4.798 0 0 1-1.765.3l.012.011Zm5.848-.184v-9.067h1.707v1.441h.093c.173-.484.461-.876.876-1.153.427-.288.9-.427 1.431-.427.25.003.501.019.75.046v1.684a3.688 3.688 0 0 0-.923-.115 2.308 2.308 0 0 0-1.108.277 1.983 1.983 0 0 0-1.061 1.776v5.538h-1.765ZM8.139 16.005c.68 0 3.299-.588 4.649-1.36 1.36-.762 1.36-.762 4.164-2.758 3.553-2.515 6.056-1.672 10.174-1.672"/><path stroke="#131316" stroke-width="4.072" d="M8.139 16.005c.68 0 3.299-.588 4.649-1.36 1.36-.762 1.36-.762 4.164-2.758 3.553-2.515 6.056-1.672 10.174-1.672"/><path fill="#131316" stroke="#131316" stroke-width=".046" d="m31.104 10.238-6.956 4.014V6.224l6.956 4.014Z"/><path fill="#131316" d="M8 16.006c.68 0 3.3.577 4.66 1.35 1.35.772 1.35.772 4.153 2.768 3.553 2.515 6.056 1.673 10.175 1.673"/><path stroke="#131316" stroke-width="4.072" d="M8 16.006c.68 0 3.3.577 4.66 1.35 1.35.772 1.35.772 4.153 2.768 3.553 2.515 6.056 1.673 10.175 1.673"/><path fill="#131316" stroke="#131316" stroke-width=".046" d="M30.966 21.763 24.01 17.76v8.017l6.956-4.014Z"/></svg>
