<svg xmlns="http://www.w3.org/2000/svg" width="144" height="32" fill="none"><path fill="#131316" fill-rule="evenodd" d="M28.81 5c-.54.424-.81 1.018-.81 1.781 0 .755.27 1.344.81 1.768.543.424 1.216.649 1.906.635.723 0 1.352-.214 1.888-.641.535-.43.803-1.016.803-1.762 0-.763-.268-1.357-.803-1.782a2.95 2.95 0 0 0-1.888-.635c-.73 0-1.368.212-1.906.635Zm4.304 5.304h-4.82v12.658h4.82V10.304Zm1.09 12.658V10.089h4.247l.215 1.41a4.62 4.62 0 0 1 1.877-1.323 5.77 5.77 0 0 1 2.065-.393h.127a6.65 6.65 0 0 1 1.575.197c.48.123.936.33 1.37.624.434.29.804.665 1.11 1.12.305.452.548 1.027.727 1.722.179.695.268 1.488.268 2.38v7.136h-4.807V15.85c0-.737-.175-1.278-.524-1.621a1.765 1.765 0 0 0-1.288-.515c-.62 0-1.146.213-1.575.641-.429.43-.644 1.042-.644 1.839v6.768h-4.743Zm14.491-12.873v12.873h4.745v-6.768c0-.797.214-1.411.644-1.839a2.146 2.146 0 0 1 1.574-.641c.51 0 .94.171 1.289.515.349.343.523.884.523 1.621v7.112h4.806v-7.136c.01-.802-.08-1.601-.267-2.38-.178-.695-.42-1.27-.727-1.724a4.1 4.1 0 0 0-1.109-1.12 4.382 4.382 0 0 0-1.372-.622 6.753 6.753 0 0 0-1.573-.197H57.1c-.688 0-1.378.131-2.066.393A4.62 4.62 0 0 0 53.16 11.5l-.218-1.411h-4.246Zm14.432 6.2c0-1.314.32-2.475.963-3.484a6.275 6.275 0 0 1 2.59-2.309c1.083-.53 2.292-.795 3.627-.795.902 0 1.789.16 2.665.482l1.048-1.325c.142-.18.256-.328.342-.442l2.221.543 1.247 1.937-1.67 1.973a4.655 4.655 0 0 1 1.236 3.217v.255a5.116 5.116 0 0 1-.637 2.353 5.608 5.608 0 0 1-1.72 1.92 5.874 5.874 0 0 1 1.381 1.056c.371.39.633.774.786 1.152.153.378.253.688.3.935.046.246.07.492.07.738 0 .806-.136 1.534-.408 2.187a4.625 4.625 0 0 1-1.104 1.63 6.198 6.198 0 0 1-1.644 1.086 8.299 8.299 0 0 1-1.984.63c-.72.13-1.45.194-2.182.19-2.302 0-4.066-.563-5.29-1.691-1.105-1.018-1.658-2.378-1.658-4.083 0-.18.005-.36.012-.547h4.515v.089c0 .417.05.772.154 1.066l.025.065c.119.34.3.594.54.764.244.17.501.288.772.356.273.067.583.102.93.102.674 0 1.238-.16 1.698-.477.458-.318.688-.774.688-1.367 0-.518-.185-.934-.554-1.247-.356-.302-.916-.458-1.688-.47h-.091c-2.176 0-3.917-.586-5.222-1.757-1.305-1.17-1.958-2.747-1.958-4.731Zm5.388 1.807c-.471-.462-.707-1.072-.707-1.825 0-.832.233-1.484.701-1.954.467-.47 1.066-.705 1.798-.705.698 0 1.277.259 1.741.775.462.518.694 1.145.694 1.884 0 .814-.233 1.437-.701 1.869-.467.432-1.046.649-1.734.649-.723 0-1.32-.232-1.792-.693Zm9.58-1.546c0-.908.138-1.741.414-2.499.276-.76.646-1.398 1.109-1.915a6.733 6.733 0 0 1 1.62-1.317 7.23 7.23 0 0 1 1.945-.788 8.791 8.791 0 0 1 2.091-.248c1.148 0 2.19.184 3.13.553.94.37 1.72.902 2.34 1.596.62.697 1.05 1.545 1.288 2.545.102.424.153.869.154 1.334v.141c0 .602-.073 1.247-.218 1.935h-9.015c.161.523.53.93 1.11 1.214a3.979 3.979 0 0 0 1.771.427c1.276 0 2.381-.35 3.316-1.045l2.347 2.633a7.557 7.557 0 0 1-2.66 1.597 9.557 9.557 0 0 1-3.22.541c-1.045 0-2.011-.13-2.9-.394a7.323 7.323 0 0 1-2.378-1.19 5.417 5.417 0 0 1-1.645-2.105c-.4-.872-.6-1.879-.6-3.015Zm9.563-1.743h-4.68c.06-.398.273-.758.593-1.003a2.293 2.293 0 0 1 1.166-.498 4.85 4.85 0 0 1 1.302.014c.434.066.805.234 1.116.501.31.268.478.597.503.986Zm4.549 6.806 1.568-3.498c.603.39 1.221.698 1.85.922.628.224 1.12.361 1.472.408.353.046.768.081 1.243.107.876 0 1.314-.208 1.314-.624 0-.398-.456-.635-1.364-.713-.52-.014-1.038-.07-1.55-.164a7.049 7.049 0 0 1-1.486-.458 4.972 4.972 0 0 1-1.28-.783 3.467 3.467 0 0 1-.882-1.188 3.809 3.809 0 0 1-.337-1.63c0-.745.166-1.398.497-1.958a3.564 3.564 0 0 1 1.353-1.317 6.906 6.906 0 0 1 1.887-.705 10.237 10.237 0 0 1 2.218-.229c1.03 0 2.007.14 2.934.42.926.28 1.709.661 2.346 1.144l-2.041 2.864c-.327-.208-.788-.385-1.379-.532l-.113-.028a6.958 6.958 0 0 0-1.67-.228h-.077c-.765 0-1.148.21-1.148.635 0 .153.074.293.224.42.138.119.364.186.677.202l.068.002c.596.016 1.149.063 1.658.14.509.076 1.036.21 1.575.407.54.195 1.001.445 1.384.75.382.306.695.71.938 1.215.241.505.363 1.084.363 1.736 0 .62-.109 1.178-.325 1.672-.219.496-.512.91-.888 1.241a5.01 5.01 0 0 1-1.338.834 7.091 7.091 0 0 1-1.639.483c-.573.097-1.178.145-1.817.145A13.523 13.523 0 0 1 95 22.854c-1.149-.301-2.078-.714-2.792-1.24Zm12.468-11.448v3.675h2.065v4.44c-.008.696.064 1.319.219 1.87.168.61.398 1.108.688 1.494.288.387.641.704 1.057.954.417.25.855.426 1.313.528.46.102.958.153 1.493.153 1.462 0 2.699-.288 3.71-.864l-1.045-3.55a2.56 2.56 0 0 1-1.403.446c-.833 0-1.262-.416-1.287-1.247V13.84h2.932v-3.675h-2.907V6.45l-4.77.522v3.193h-2.065Z" clip-rule="evenodd"/></svg>
