<svg xmlns="http://www.w3.org/2000/svg" width="104" height="42" fill="none">
  <path d="M48.1784 33.2367C47.0306 33.2032 46.0671 33.803 45.6141 34.7843C45.0684 34.0424 44.6842 33.0733 44.4823 32.0101C44.2781 30.9348 44.2675 29.7982 44.4454 28.7658C45.855 30.036 47.6168 30.4788 49.331 30.7382L49.331 30.7382C52.4344 31.2076 55.5276 31.0382 58.4672 29.5919L58.4674 29.5918C58.6166 29.5183 58.7668 29.4312 58.9142 29.3408C59.0104 29.8311 59.024 30.327 58.9646 30.8332L58.9646 30.8333C58.7576 32.603 57.8843 33.9686 56.4615 35.0212L56.4614 35.0213C56.0537 35.323 55.637 35.5978 55.2073 35.8811C55.0074 36.013 54.8047 36.1467 54.5988 36.2858L54.5987 36.2859C53.5777 36.9759 52.8739 37.763 52.5462 38.7229C52.3111 39.4118 52.2831 40.1504 52.4278 40.9474C52.0182 40.6273 51.6784 40.2457 51.3889 39.7999L51.3888 39.7998C50.8652 38.9946 50.6135 38.1026 50.6002 37.1223L50.6002 37.1221C50.5995 37.0729 50.5989 37.0232 50.5982 36.973C50.5925 36.5071 50.5862 36.0028 50.5186 35.5072L50.5186 35.5071C50.4254 34.8248 50.2086 34.2499 49.7933 33.8428C49.3706 33.4284 48.8116 33.2552 48.1784 33.2367ZM48.1784 33.2367L48.1638 33.7365L48.1784 33.2367C48.1784 33.2367 48.1784 33.2367 48.1784 33.2367Z" stroke="#D9D9DE" stroke-width="0.75" />
  <path d="M67.5348 26.3264L67.6114 26.5353C67.0674 26.2748 66.2831 25.9329 65.2954 25.5914C63.3408 24.9157 60.5851 24.2399 57.3176 24.2038L53.1566 11.3266C52.9665 10.586 52.3923 9.98758 51.6484 9.98758C50.9046 9.98758 50.3304 10.586 50.1403 11.3266L45.9792 24.2044C43.1999 24.2466 40.4577 24.9208 38.3978 25.5892C37.3319 25.935 36.4439 26.2809 35.8215 26.5406C35.7649 26.5643 35.7104 26.5872 35.6582 26.6094L35.7621 26.3263L36.8434 23.3804L40.1259 14.4374C41.32 11.1843 42.5148 7.92959 43.4123 5.48495L44.4984 2.52705C44.6827 2.02504 44.8102 1.67829 44.8707 1.51352C44.8974 1.44099 44.9111 1.40372 44.911 1.404L44.911 1.40402L44.9137 1.39709C45.1917 0.66651 45.5449 0.375 45.9229 0.375H57.375C57.7565 0.375 58.126 0.672609 58.3815 1.38958L58.3816 1.38992C58.3916 1.41801 60.7833 7.93366 63.1708 14.4378L66.4534 23.3805L67.5348 26.3264Z" stroke="#D9D9DE" stroke-width="0.75"/>
</svg>
