<svg xmlns="http://www.w3.org/2000/svg" width="104" height="42" fill="none"><rect width="39.25" height="39.25" x="32.375" y="1.375" stroke="#D9D9DE" stroke-width=".75" rx="19.625"/><path stroke="#D9D9DE" stroke-width=".75" d="M45.804 12.763c-1.55.516-5.678 3.098-3.098 10.326 2.729-2.455 3.505-5.345 3.519-7.57m-.421-2.756h-.002m.002 0c0-1.205.516-4.13 4.13-4.647-.172.776-.722 2.456-1.548 2.97m-2.582 1.677c1.251-.577 3.363-.348 5.163.87m-5.163-.87a7.89 7.89 0 0 1 2.581-1.676m-2.581 1.676a8.767 8.767 0 0 0 1.74 2.582m-1.74-2.582c.234.643.428 1.611.421 2.755m-4.111 1.376c-.517.516-1.368 1.342-3.02 2.582-.413-2.204-.168-5.51 3.389-6.478m0 0c.887-.242 1.98-.338 3.319-.235m-3.32.235c-1.147 0-2.36-.75-2.875-1.267 2.89-2.065 5.334-.173 6.195 1.032m5.165.87c1.419.96 2.643 2.534 3.098 4.81-2.245-.375-4.707-1.237-6.521-3.098m3.423-1.712c1.033.68 3.614.68 4.647.163-2.101-3.502-4.994-3.6-7.228-2.71m-.842 4.259c.452 2.581 2.182 8.57 3.422 11.875m-4.741-11.701c.375 2.523 1.023 8.603.61 12.734m-8.261 6.712c4.21-6.196 9.333-7.745 13.424-7.745 4.091 0 9.215 1.549 13.424 7.745m-25.3 1.549c3.887-5.783 8.1-7.229 11.876-7.229s7.99 1.446 11.875 7.229M51.482 27.22l2.065-2.194m0 0-1.549-1.937m1.55 1.937.515.645m0 0 1.55 2.065m-1.55-2.065 4.13 1.033-1.032 1.549m12.671-15.31A7.404 7.404 0 0 1 61.455 4M42.761 30.26a14.456 14.456 0 0 0-8.41-.618m26.885.618a14.456 14.456 0 0 1 8.41-.618m-24.275-.993a17.555 17.555 0 0 0-12.103-1.314m25.358 1.314a17.555 17.555 0 0 1 12.103-1.314M40.616 32.29a11.358 11.358 0 0 0-5.038-.253m27.803.253c1.639-.461 3.36-.548 5.037-.253M56.754 6.665l2.029-.14m-1.578 2.649 1.922-.568m-.915 2.962 1.742-.974m-.236 3.082 1.503-1.35m-4.38-8.081 2.028.283m5.525 12.318.739-2.018m2.352 2.694.163-2.04m-5.847.025 1.19-1.735"/></svg>
