<svg xmlns="http://www.w3.org/2000/svg" width="144" height="32" fill="none"><path fill="#131316" fill-rule="evenodd" d="M101.844 6.545c2.518 0 5.038.569 6.326 1.707l-.004-.002c1.29 1.14 1.937 2.754 1.937 4.842v5.905c0 2.059-.651 3.65-1.946 4.773-1.3 1.122-3.82 1.684-6.34 1.684-2.518 0-5.19-.018-6.635-1.66-1.534-1.742-.968-3.07-.35-4.523.369-.863.755-1.77.73-2.835-.023-.965-.453-1.648-.883-2.332-.619-.983-1.239-1.968-.653-3.795 1.106-3.45 4.851-3.764 7.818-3.764Zm3.443 15.098c.579-.57.87-1.544.87-2.933V13.38c0-1.417-.288-2.418-.87-3.005-.581-.587-2.186-.876-3.581-.876-1.394 0-3 .292-3.58.876-.58.585-.87 1.588-.87 3.006v5.328c0 1.386.288 2.364.87 2.933.58.569 2.186.853 3.58.853 1.395 0 3-.284 3.581-.853ZM40.808 25.35c-1.506 0-2.936-.232-4.292-.698A9.139 9.139 0 0 1 33 22.49l1.347-2.632c.974.824 2.02 1.443 3.139 1.854 1.118.413 2.393.616 3.823.616 1.14 0 2.01-.206 2.602-.616.593-.414.891-1.007.891-1.786 0-.7-.346-1.21-1.04-1.522-.69-.314-2.157-.662-4.393-1.043-2.146-.337-3.661-.88-4.544-1.637-.882-.756-1.324-1.888-1.324-3.4 0-1.633.61-2.987 1.827-4.062 1.22-1.073 3-1.612 5.343-1.612 1.417 0 2.766.232 4.057.7 1.286.465 2.303 1.108 3.049 1.935L46.589 11.8a10.938 10.938 0 0 0-2.867-1.585 9.079 9.079 0 0 0-3.116-.544c-1.006 0-1.796.18-2.375.54-.58.359-.869.914-.869 1.666 0 .704.355 1.21 1.062 1.517.707.307 2.202.662 4.486 1.059 2.117.366 3.607.937 4.476 1.716.869.777 1.302 1.921 1.302 3.432 0 1.815-.698 3.226-2.09 4.233-1.394 1.007-3.322 1.51-5.79 1.51v.005Zm19.717.104c-2.722 0-5.299-.562-6.5-1.687-1.2-1.126-1.8-2.865-1.8-5.224V6.857h3.9V18.22c0 1.468.259 2.51.78 3.122.521.615 2.137.92 3.622.92 1.485 0 3.101-.308 3.622-.92.33-.387.415-.964.521-1.698.062-.424.131-.901.26-1.424.13-.521.589-1.192 1.06-1.88.593-.864 1.203-1.755 1.197-2.408-.006-.653-.616-1.501-1.206-2.32-.467-.65-.922-1.283-1.05-1.784-.186-.718 0-2.971 0-2.971h3.899s.04 2.228 0 2.97c-.025.449-.115 1.091-.209 1.756-.116.829-.237 1.691-.242 2.25-.006.673.123 1.723.245 2.72.093.756.181 1.481.206 1.99.113 2.355-.6 4.1-1.801 5.224-1.203 1.125-3.778 1.687-6.5 1.687h-.004Zm23.549-.313s-.925-1.057-1.675-3.514c-.273-.893-.363-1.648-.446-2.343-.107-.901-.203-1.703-.668-2.581-.38-.715-.96-1.116-1.623-1.572-.544-.376-1.142-.788-1.726-1.442-1.151-1.29-1.653-2.786-1.653-2.786v14.238h-3.376V6.858h5.362s1.644 2.587 2.376 4.166c.398.857.533 1.627.668 2.403.148.843.296 1.692.783 2.668.82 1.642 1.334 2.054 1.941 2.54a7.8 7.8 0 0 1 1.05.969c.684.764.973 1.536.973 1.536V6.858h3.354v18.283h-5.34Z" clip-rule="evenodd"/></svg>
