<svg xmlns="http://www.w3.org/2000/svg" fill="none" width="104" height="21" viewBox="0 0 104 21"><path fill="#131316" fill-rule="evenodd" d="M23.737 20.983 11.87.01 0 20.983h23.737Zm11.972-.955L45.627.963h-4.29L34.495 14.81 27.653.963h-4.29l9.918 19.065h2.428ZM103.305.963v19.065h-3.552V.963h3.552Zm-19.77 11.95c0-1.487.304-2.793.915-3.921a6.405 6.405 0 0 1 2.552-2.605c1.092-.608 2.368-.913 3.83-.913 1.295 0 2.46.287 3.496.86 1.036.572 1.86 1.423 2.47 2.55.61 1.128.925 2.507.943 4.136v.832h-10.46c.073 1.181.415 2.112 1.026 2.793.629.662 1.47.993 2.525.993.666 0 1.277-.179 1.831-.537a3.335 3.335 0 0 0 1.249-1.45l3.635.269c-.444 1.342-1.276 2.416-2.497 3.222-1.221.805-2.627 1.208-4.218 1.208-1.462 0-2.738-.304-3.83-.913a6.406 6.406 0 0 1-2.552-2.604c-.61-1.128-.916-2.435-.916-3.92Zm10.543-1.343c-.13-1.164-.49-2.014-1.082-2.551-.592-.555-1.313-.833-2.164-.833-.98 0-1.776.296-2.386.886-.611.591-.99 1.424-1.138 2.498h6.77ZM77.541 9.019c.592.483.962 1.154 1.11 2.014l3.662-.188c-.13-1.092-.508-2.041-1.137-2.847-.63-.805-1.443-1.423-2.442-1.852-.98-.448-2.062-.672-3.247-.672-1.461 0-2.737.305-3.83.913a6.404 6.404 0 0 0-2.552 2.605c-.61 1.128-.915 2.434-.915 3.92 0 1.486.305 2.793.915 3.92a6.405 6.405 0 0 0 2.553 2.605c1.092.609 2.368.913 3.83.913 1.22 0 2.33-.224 3.33-.671a6.325 6.325 0 0 0 2.441-1.96c.63-.842 1.008-1.826 1.138-2.954l-3.69-.161c-.13.949-.491 1.683-1.083 2.202-.592.5-1.304.752-2.137.752-1.146 0-2.034-.403-2.664-1.209-.628-.805-.943-1.951-.943-3.437 0-1.486.315-2.631.943-3.437.63-.805 1.518-1.208 2.664-1.208.796 0 1.48.25 2.054.752ZM59.523 5.796h3.306l.095 2.739c.235-.775.56-1.378.979-1.806.605-.622 1.45-.933 2.534-.933h1.35v2.932h-1.378c-.771 0-1.404.106-1.9.32-.478.213-.845.55-1.102 1.012-.239.462-.358 1.048-.358 1.76v8.208h-3.526V5.796ZM44.277 8.992c-.61 1.128-.915 2.434-.915 3.92 0 1.486.305 2.793.915 3.92a6.405 6.405 0 0 0 2.553 2.605c1.092.609 2.368.913 3.83.913 1.59 0 2.997-.403 4.217-1.208 1.222-.806 2.054-1.88 2.498-3.222l-3.635-.269a3.335 3.335 0 0 1-1.249 1.45 3.31 3.31 0 0 1-1.831.537c-1.055 0-1.896-.331-2.525-.993-.611-.68-.953-1.611-1.027-2.793h10.461v-.832c-.019-1.63-.333-3.008-.943-4.136-.61-1.127-1.434-1.978-2.47-2.55-1.036-.573-2.201-.86-3.496-.86-1.462 0-2.738.305-3.83.913a6.404 6.404 0 0 0-2.553 2.605Zm8.547.027c.592.537.953 1.387 1.082 2.55h-6.77c.148-1.074.527-1.906 1.137-2.497.61-.59 1.406-.886 2.387-.886.85 0 1.572.278 2.164.833Z" clip-rule="evenodd"/></svg>