<svg xmlns="http://www.w3.org/2000/svg" width="104" height="42" fill="none">
  <path stroke="#D9D9DE" stroke-width=".75" d="M52.185 25.37a4.185 4.185 0 1 0 0-8.37 4.185 4.185 0 0 0 0 8.37Z" />
  <path fill="#D9D9DE"
    d="m62.615 12.228.373.038-.373-.038Zm-1.78-6.533.188-.324-.187.324Zm1.757 6.747-.103.36.426.123.05-.44-.373-.043Zm-5.054-1.033-.298.229.094.123.154.02.05-.372Zm-3.423-3.861-.223-.302-.356.263.319.308.26-.27Zm.174-.127.219.304-.22-.304Zm-2.97-2.23-.22.303.22-.304Zm.68.51-.23.296.23.18.231-.18-.23-.296Zm-13.35 6.804.373-.038-.373.038Zm.102.846.14.347.272-.11-.04-.29-.372.053Zm-.784.335-.154-.342.154.342Zm0 14.63.154-.343-.154.342Zm.783.334.372.052.04-.29-.271-.11-.14.348Zm-.102.846-.373-.038.373.038Zm3.14 9.19-.187.325.187-.324Zm9.53-1.875.219.304-.22-.304Zm.682-.512.23-.296-.23-.18-.231.18.23.296Zm.682.512.219-.304-.22.304Zm12.67-7.315-.374.038.373-.038Zm-.103-.846-.14-.348-.272.11.04.29.372-.052Zm.784-.335-.154-.342.154.342Zm0-14.63-.154.342.154-.341Zm-.784-.334-.372-.052-.04.29.27.11.142-.348Zm.102-.846.373.037-.373-.037ZM52.68 5.19l.22.304-.22-.304ZM52 9.33l.257-.273L52 8.814l-.258.243.258.273Zm-1.704 1.757-.28-.25-.589.659.883-.035-.014-.374Zm3.407 0-.014.374.883.035-.589-.66-.28.25Zm-7.241.322.049.372.154-.02.095-.123-.298-.229Zm-5.054 1.033-.373.042.05.44.426-.121-.103-.36Zm-.023-.214.373-.037-.373.037Zm1.779-6.533-.188-.324.188.324Zm6.547 1.726-.22.305.22-.305Zm.173.127.26.27.32-.309-.357-.263-.223.302Zm-6.498 8.48-.325-.188.325.187Zm.88-1.46.317.2.47-.747-.864.18.077.367Zm-1.703 2.95-.357.117.276.84.412-.782-.331-.175Zm-.67-2.353-.107-.36-.34.102.083.345.364-.087Zm3.874 2.237-.325-.187.325.187ZM43.921 21l-.342-.154-.07.154.07.154.342-.154Zm4.039-6.996-.038-.373-.168.017-.098.137.304.219Zm8.08 0 .304-.22-.099-.136-.168-.017-.037.373Zm2.192 3.398.325-.187-.325.187ZM60.08 21l.342.154.069-.154-.07-.154-.341.154Zm-1.847 3.599.325.187-.325-.188Zm-2.193 3.398.037.373.168-.017.1-.137-.305-.219Zm-8.078 0-.305.22.099.136.168.017.038-.373Zm-2.193-3.398-.325.187.325-.187Zm-6.476-8.493.364-.09-.107-.431-.407.177.15.344Zm1.633 4.893.347.144.059-.143-.06-.144-.346.143Zm-1.83-4.806.154.342-.154-.342Zm0 9.614.154-.342-.154.342Zm.197.087-.15.344.406.178.108-.43-.364-.092Zm3.27-1.413.332-.175-.412-.782-.276.84.356.117Zm-.67 2.354-.364-.087-.082.345.34.102.107-.36Zm1.494-.861.325-.188-.325.188Zm.88 1.458-.076.367.865.181-.471-.747-.318.2Zm-2.859 2.126.103-.36-.426-.122-.05.44.373.042Zm-.023.214-.373-.037.373.037Zm1.78 6.533.187-.325-.188.325Zm6.546-1.726.22.305-.22-.305Zm.174-.127.223.302.357-.263-.319-.308-.26.27Zm-3.421-3.86.297-.229-.094-.123-.154-.02-.05.371Zm7.652 3.86-.26-.27-.32.309.357.263.223-.302Zm.174.128.22-.305-.22.305Zm6.547 1.725.188.325-.188-.325Zm1.78-6.532.373-.038-.374.038Zm-.023-.215.372-.042-.05-.44-.426.122.104.36Zm-5.056 1.033-.05-.372-.153.02-.095.124.298.228ZM52 32.671l-.258.272.258.243.257-.243L52 32.67Zm1.703-1.757.28.25.588-.659-.883.034.015.375Zm-3.406 0 .014-.375-.883-.034.59.659.279-.25Zm11.81-4.079.107.36.34-.102-.083-.345-.364.087Zm-2.374.597-.317-.2-.471.748.865-.18-.077-.368Zm1.704-2.95.356-.118-.276-.84-.412.782.332.175Zm-.824 1.492.325.187-.325-.188ZM63.074 21l-.346-.144-.06.143.06.144.346-.143Zm1.634 4.894-.364.091.107.43.407-.177-.15-.344Zm.196-.087-.154-.342.154.342Zm0-9.614.154-.342-.154.342Zm-.197-.087.15-.344-.406-.177-.108.43.364.091Zm-2.601-.94.365.086.082-.345-.34-.101-.107.36Zm-2.372-.598.077-.367-.865-.18.47.747.318-.2Zm.88 1.46-.325.187.325-.188Zm.823 1.49-.332.175.412.782.276-.84-.356-.117Zm1.55-5.252c.19-1.866.068-3.366-.28-4.51-.35-1.142-.933-1.952-1.684-2.385l-.375.65c.54.31 1.03.934 1.341 1.954.311 1.02.435 2.415.253 4.216l.746.075Zm-.023.218.024-.218-.746-.075-.023.21.745.083Zm-5.475-.703c1.778.234 3.458.58 5 1.022l.206-.721a35.408 35.408 0 0 0-5.109-1.044l-.097.743Zm-3.634-3.964a34.66 34.66 0 0 1 3.385 3.82l.595-.456a35.406 35.406 0 0 0-3.46-3.903l-.52.54Zm.214-.7-.177.129.446.603.17-.124-.439-.608Zm6.954-1.746c-.75-.434-1.744-.535-2.908-.265s-2.524.915-4.046 2.01l.439.61c1.468-1.059 2.737-1.649 3.777-1.89 1.04-.24 1.824-.127 2.363.184l.375-.65Zm-9.924.123c.223.16.446.328.67.503l.461-.591a22.61 22.61 0 0 0-.692-.52l-.439.608ZM41.976 3.64c2.602-1.503 6-.395 9.123 1.855l.439-.608c-3.163-2.279-6.918-3.64-9.937-1.897l.375.65Zm-2.954 8.828c-.387-3.83.352-7.326 2.954-8.828l-.375-.65c-3.018 1.743-3.717 5.675-3.325 9.554l.746-.076Zm.1.832c-.039-.281-.072-.558-.1-.832l-.746.076c.028.283.063.57.104.86l.742-.104Zm-1.001.729c.25-.113.508-.223.77-.33l-.28-.695c-.272.11-.538.224-.798.34l.308.684ZM31.952 21c0-3.004 2.658-5.393 6.169-6.973l-.308-.683c-3.555 1.6-6.61 4.17-6.61 7.656h.75Zm6.169 6.973c-3.511-1.58-6.169-3.968-6.169-6.973h-.75c0 3.486 3.056 6.057 6.61 7.657l.309-.684Zm.77.329a22.04 22.04 0 0 1-.77-.329l-.308.684c.26.117.525.23.797.34l.281-.695Zm.13 1.232c.028-.274.061-.551.1-.832l-.742-.104c-.04.29-.075.577-.104.86l.746.076Zm2.955 8.828c-2.602-1.502-3.342-4.998-2.955-8.829l-.746-.075c-.392 3.879.307 7.81 3.326 9.553l.375-.649Zm9.123-1.856c-3.124 2.251-6.521 3.358-9.123 1.856l-.375.65c3.018 1.742 6.773.382 9.936-1.897l-.438-.609Zm.67-.503c-.224.175-.447.343-.67.503l.438.609c.231-.167.462-.34.693-.52l-.461-.592Zm1.132.504c-.223-.161-.447-.33-.67-.504l-.462.591c.231.18.462.355.694.521l.438-.608Zm9.123 1.855c-2.602 1.502-6 .395-9.123-1.855l-.438.608c3.163 2.279 6.917 3.64 9.936 1.897l-.375-.65Zm2.954-8.828c.388 3.83-.352 7.326-2.954 8.828l.375.65c3.018-1.743 3.718-5.675 3.326-9.554l-.747.076Zm-.1-.832c.04.28.073.558.1.832l.747-.076c-.03-.283-.064-.57-.104-.86l-.743.104Zm1-.729c-.25.113-.507.223-.77.329l.282.695c.272-.11.537-.223.797-.34l-.308-.684ZM72.049 21c0 3.005-2.658 5.393-6.17 6.973l.309.684c3.555-1.6 6.61-4.171 6.61-7.657h-.75Zm-6.17-6.973c3.512 1.58 6.17 3.969 6.17 6.973h.75c0-3.485-3.056-6.057-6.611-7.656l-.308.684Zm-.77-.329c.263.107.52.217.77.33l.309-.684a22.77 22.77 0 0 0-.798-.34l-.281.694Zm-.13-1.23c-.028.272-.061.55-.1.83l.742.105c.04-.29.075-.577.104-.86l-.746-.076Zm-2.955-8.83c2.602 1.503 3.342 4.998 2.955 8.83l.746.075c.392-3.88-.307-7.811-3.326-9.554l-.375.65ZM52.9 5.495c3.124-2.25 6.521-3.358 9.123-1.855l.375-.65c-3.018-1.743-6.773-.382-9.936 1.897l.438.608Zm-.67.503c.224-.175.447-.342.67-.503l-.438-.608c-.231.166-.462.34-.693.52l.461.591Zm-.488 3.06a29.822 29.822 0 0 0-1.726 1.78l.56.5a29.041 29.041 0 0 1 1.681-1.735l-.515-.545ZM52 10.68c-.578 0-1.151.011-1.718.033l.028.75c.558-.022 1.121-.033 1.69-.033v-.75Zm1.718.033A44.527 44.527 0 0 0 52 10.679v.75c.568 0 1.132.01 1.689.032l.029-.749Zm-1.976-1.11c.561.531 1.123 1.11 1.682 1.735l.559-.5a29.791 29.791 0 0 0-1.726-1.78l-.515.545Zm-5.329 1.436a35.396 35.396 0 0 0-5.108 1.044l.206.72a34.674 34.674 0 0 1 5-1.02l-.098-.744ZM41.78 12.4l-.022-.21-.746.076.023.218.745-.084Zm-.022-.21c-.182-1.8-.059-3.194.253-4.215.31-1.02.801-1.644 1.34-1.955l-.375-.65c-.75.434-1.334 1.244-1.683 2.387-.348 1.143-.47 2.643-.281 4.51l.746-.076Zm1.593-6.17c.54-.31 1.324-.424 2.364-.183 1.04.24 2.308.83 3.777 1.889l.438-.609c-1.522-1.096-2.881-1.741-4.046-2.011-1.164-.27-2.157-.169-2.908.265l.375.65Zm6.14 1.706c.057.04.114.082.17.123l.446-.603a18.878 18.878 0 0 0-.177-.129l-.438.609Zm-2.731 3.912a34.661 34.661 0 0 1 3.385-3.82l-.521-.54a35.408 35.408 0 0 0-3.46 3.903l.596.457Zm-3.05 4.577c.284-.492.575-.975.873-1.447l-.635-.4c-.302.48-.598.971-.887 1.472l.65.375Zm-.816 1.478c.26-.494.532-.987.816-1.478l-.65-.375c-.288.5-.565 1.001-.83 1.503l.664.35Zm.025-.292a29.057 29.057 0 0 1-.66-2.323l-.73.174c.184.772.41 1.569.677 2.383l.713-.234ZM42 15.525c.74-.22 1.522-.418 2.341-.59l-.153-.734c-.839.176-1.642.378-2.403.605l.215.719Zm3.441 1.69a40.748 40.748 0 0 0-1.863 3.63l.684.309a39.97 39.97 0 0 1 1.829-3.564l-.65-.375Zm2.214-3.43a40.744 40.744 0 0 0-2.214 3.43l.65.375c.69-1.196 1.42-2.321 2.172-3.367l-.608-.438Zm.341.592A40.027 40.027 0 0 1 52 14.179v-.75c-1.405 0-2.77.07-4.078.202l.075.746ZM52 14.179c1.38 0 2.72.069 4.002.198l.075-.746A40.76 40.76 0 0 0 52 13.429v.75Zm3.735.044a40.001 40.001 0 0 1 2.173 3.367l.65-.375a40.755 40.755 0 0 0-2.214-3.43l-.609.438Zm2.173 3.367c.69 1.195 1.3 2.389 1.829 3.564l.684-.308a40.758 40.758 0 0 0-1.864-3.631l-.65.375Zm.648 7.196a40.781 40.781 0 0 0 1.865-3.633l-.684-.307a39.989 39.989 0 0 1-1.83 3.565l.65.375Zm-2.213 3.43a40.758 40.758 0 0 0 2.213-3.43l-.65-.375a40.003 40.003 0 0 1-2.172 3.367l.61.438Zm-.342-.592c-1.282.129-2.621.198-4.001.198v.75c1.405 0 2.769-.07 4.076-.202l-.075-.746ZM52 27.822c-1.38 0-2.72-.069-4.002-.198l-.075.746c1.308.132 2.672.202 4.077.202v-.75Zm-3.735-.044a40.001 40.001 0 0 1-2.172-3.367l-.65.375a40.755 40.755 0 0 0 2.213 3.43l.609-.438Zm-2.172-3.367c-.69-1.195-1.3-2.39-1.83-3.566l-.684.309a40.757 40.757 0 0 0 1.864 3.632l.65-.375Zm-7.164-8.214c.398 1.595.95 3.258 1.65 4.946l.693-.287a34.667 34.667 0 0 1-1.616-4.84l-.727.18Zm.32.338.193-.085-.3-.688-.2.09.307.683ZM34.702 21c0-.622.295-1.358 1.023-2.138.728-.78 1.874-1.584 3.524-2.327l-.308-.684c-1.71.77-2.948 1.625-3.764 2.499-.816.873-1.225 1.784-1.225 2.65h.75Zm4.547 4.465c-1.65-.742-2.796-1.546-3.524-2.326-.728-.78-1.023-1.516-1.023-2.139h-.75c0 .867.41 1.778 1.225 2.651.816.873 2.054 1.729 3.764 2.498l.308-.684Zm.193.086a16.37 16.37 0 0 1-.193-.086l-.308.684.2.09.3-.688Zm.214.434c.388-1.556.929-3.184 1.616-4.842l-.693-.287a35.412 35.412 0 0 0-1.651 4.948l.728.181Zm2.55-1.62a29.751 29.751 0 0 0-.678 2.383l.73.174c.179-.751.4-1.528.66-2.324l-.712-.234Zm.025.291c.264.502.541 1.004.83 1.505l.65-.375a43.65 43.65 0 0 1-.817-1.48l-.663.35Zm.83 1.505c.29.5.586.991.888 1.471l.635-.4a43.898 43.898 0 0 1-.873-1.446l-.65.375Zm1.282.904a29.053 29.053 0 0 1-2.343-.59l-.214.72c.761.227 1.564.43 2.404.604l.153-.734Zm-3.309 2.451a19.56 19.56 0 0 0-.023.219l.746.075.023-.21-.746-.084Zm-.023.219c-.189 1.866-.067 3.366.281 4.51.349 1.142.933 1.952 1.684 2.385l.375-.65c-.54-.31-1.03-.934-1.341-1.955-.311-1.02-.435-2.414-.253-4.215l-.746-.075Zm1.965 6.895c.75.433 1.743.534 2.907.265 1.165-.27 2.525-.915 4.046-2.011l-.438-.609c-1.468 1.058-2.737 1.648-3.777 1.889-1.04.24-1.825.128-2.363-.184l-.375.65Zm6.953-1.746.178-.13-.445-.603-.171.124.438.609Zm.216-.701a34.64 34.64 0 0 1-3.385-3.82l-.595.457a35.421 35.421 0 0 0 3.459 3.902l.521-.54Zm-3.633-3.963a34.667 34.667 0 0 1-5.002-1.022l-.206.72c1.58.454 3.297.806 5.11 1.045l.098-.744Zm7.38 4.534.178.13.439-.609a19.357 19.357 0 0 1-.171-.124l-.446.603Zm.178.13c1.522 1.096 2.882 1.741 4.046 2.01 1.164.27 2.157.17 2.908-.264l-.375-.65c-.539.312-1.324.425-2.364.184-1.039-.24-2.308-.83-3.776-1.889l-.439.609Zm6.954 1.746c.75-.433 1.335-1.243 1.683-2.386.349-1.143.47-2.643.282-4.51l-.747.076c.182 1.8.059 3.195-.252 4.215-.312 1.021-.802 1.645-1.341 1.956l.375.65Zm1.965-6.895a17.285 17.285 0 0 0-.024-.219l-.745.084.022.21.747-.075Zm-.5-.537a34.664 34.664 0 0 1-5.001 1.021l.098.744a35.411 35.411 0 0 0 5.11-1.044l-.207-.721Zm-5.25 1.165a34.651 34.651 0 0 1-3.385 3.82l.522.539a35.421 35.421 0 0 0 3.458-3.902l-.595-.457Zm-4.982 2.58a29.756 29.756 0 0 0 1.725-1.779l-.559-.5a29.001 29.001 0 0 1-1.681 1.734l.515.544Zm-2.24-1.779a29.724 29.724 0 0 0 1.725 1.779l.515-.545c-.56-.53-1.122-1.11-1.68-1.734l-.56.5ZM52 30.572c-.568 0-1.132-.011-1.689-.033l-.029.75c.567.022 1.14.033 1.718.033v-.75Zm1.688-.033c-.557.022-1.12.033-1.688.033v.75c.578 0 1.15-.011 1.717-.033l-.029-.75ZM62 26.476c-.74.22-1.523.418-2.344.59l.154.733c.84-.175 1.642-.377 2.404-.604l-.214-.72Zm-.92-1.878c.262.796.483 1.573.662 2.324l.73-.174c-.185-.772-.411-1.57-.679-2.384l-.712.234Zm.025-.292c-.26.494-.532.988-.816 1.48l.649.375c.29-.5.566-1.003.83-1.505l-.663-.35Zm-.816 1.48c-.285.492-.576.975-.873 1.447l.634.4c.303-.48.599-.971.888-1.472l-.65-.375Zm2.439-4.643a34.652 34.652 0 0 1 1.616 4.842l.728-.181a35.412 35.412 0 0 0-1.651-4.948l-.693.287Zm2.13 5.095.2-.089-.308-.684c-.063.03-.127.058-.192.086l.3.687Zm.2-.089c1.71-.77 2.949-1.625 3.765-2.498.815-.873 1.224-1.784 1.224-2.65h-.75c0 .622-.294 1.358-1.022 2.138-.729.78-1.874 1.584-3.525 2.326l.308.684ZM70.048 21c0-.866-.41-1.777-1.225-2.65-.816-.874-2.054-1.729-3.765-2.499l-.308.684c1.65.743 2.796 1.547 3.525 2.327.728.78 1.022 1.516 1.022 2.138h.75Zm-4.99-5.149-.2-.089-.3.688.192.085.308-.684Zm-.715.164a34.654 34.654 0 0 1-1.615 4.84l.693.288a35.416 35.416 0 0 0 1.65-4.946l-.728-.182Zm-2.13-1.21a29.796 29.796 0 0 0-2.402-.604l-.154.735c.82.17 1.602.368 2.342.589l.214-.72Zm-2.796-.037c.297.472.588.954.872 1.447l.65-.375c-.29-.5-.585-.991-.888-1.471l-.634.4Zm.872 1.447c.284.492.556.985.816 1.478l.664-.35a44.502 44.502 0 0 0-.83-1.503l-.65.375Zm1.504 1.42c.268-.814.494-1.61.678-2.383l-.73-.174c-.179.751-.4 1.527-.66 2.323l.712.234Z" />
</svg>
