<svg xmlns="http://www.w3.org/2000/svg" width="144" height="32" fill="none"><mask id="a" width="138" height="32" x="3" y="0" maskUnits="userSpaceOnUse" style="mask-type:luminance"><path fill="#fff" d="M3 0h137.143v32H3V0Z"/></mask><g fill="#131316" mask="url(#a)"><path d="M46.685 21.5V10.664h3.903c1.626 0 2.926 1.237 2.926 2.785v.619a2.65 2.65 0 0 1-.747 1.859 2.74 2.74 0 0 1 1.073 2.165v.62c0 1.549-1.3 2.786-2.926 2.786h-4.229Zm1.627-1.55h2.6c.732 0 1.302-.54 1.302-1.236v-.62c0-.697-.569-1.238-1.301-1.238h-2.601v3.095Zm0-4.642h2.276c.731 0 1.301-.543 1.301-1.239v-.619c0-.696-.57-1.239-1.301-1.239h-2.276v3.097Zm7.22 6.191v-7.893h1.625v1.19l1.838-1.192h.472c1.494 0 2.73 1.239 2.73 2.787v.619H60.57v-.619c0-.68-.457-1.239-1.106-1.239h-.146l-2.164 1.378v4.97h-1.623Zm10.616 0c-1.626 0-2.926-1.222-2.926-2.77V16.39c0-1.548 1.3-2.787 2.926-2.787h1.301c1.626 0 2.926 1.239 2.926 2.787v2.338c0 1.548-1.3 2.77-2.926 2.77h-1.301Zm-1.3-2.77c0 .696.568 1.207 1.3 1.222h1.301c.731 0 1.301-.526 1.301-1.222V16.39c0-.696-.57-1.239-1.301-1.239h-1.301c-.732 0-1.3.543-1.3 1.24v2.337Zm8.495 2.77-1.545-4.334v-3.56h1.626V16.7l.813 2.46 1.383-4.163h1.333l1.382 4.164.814-2.461v-3.097h1.626v3.561L79.229 21.5h-1.382l-1.56-3.7-1.562 3.7h-1.382Zm11.44 0c-1.576 0-2.747-.975-2.747-2.29v-.31h1.626v.31c0 .495.424.852 1.123.852h1.478c.765 0 1.14-.296 1.14-.744 0-1.75-5.252-.619-5.252-3.622 0-1.254 1.057-2.09 2.6-2.09h1.4c1.463 0 2.6 1.005 2.6 2.306v.139h-1.625v-.139c0-.495-.407-.867-.975-.867h-1.4c-.682 0-.974.264-.974.65 0 1.255 5.252.466 5.252 3.623 0 1.3-1.123 2.182-2.764 2.182H84.784Zm8.473 0c-1.61 0-2.927-1.27-2.927-2.8V16.39c0-1.548 1.317-2.787 2.926-2.787h1.301c1.577 0 2.845 1.161 2.926 2.632v1.671h-5.527v.791c0 .681.585 1.238 1.3 1.238h1.301c.716 0 1.301-.558 1.301-1.24v-.153h1.626v.155c0 1.532-1.301 2.801-2.925 2.801h-1.302Zm-1.301-4.83h3.9v-.278c0-.696-.568-1.239-1.299-1.239h-1.301c-.732 0-1.3.558-1.3 1.24v.278-.001Zm7.29 4.83v-7.893h1.626v1.19l1.837-1.192h.473c1.495 0 2.73 1.239 2.73 2.787v.619h-1.625v-.619c0-.68-.456-1.239-1.105-1.239h-.146l-2.164 1.378v4.97h-1.626Zm10.945 0-1.348-.867v.869h-1.628V10.508h1.626v3.962l1.349-.867h1.252c1.609 0 2.926 1.239 2.926 2.787v2.322c0 1.531-1.315 2.785-2.926 2.785h-1.252l.001.002Zm-1.348-2.74 1.853 1.192h.748c.716 0 1.301-.556 1.301-1.238v-2.322c0-.68-.585-1.239-1.301-1.239h-.747l-1.854 1.192v2.415Zm9.949 2.74c-1.609 0-2.926-1.254-2.926-2.785V16.39c0-1.548 1.317-2.787 2.926-2.787h1.252l1.35.869v-.869h1.626V21.5h-1.626v-.867l-1.35.869h-1.252v-.002Zm-1.3-2.785c0 .68.585 1.237 1.3 1.237h.748l1.854-1.192v-2.415l-1.854-1.192h-.747c-.716 0-1.303.558-1.303 1.24l.002 2.322Zm9.902 2.785c-1.579 0-2.749-.975-2.749-2.29v-.31h1.626v.31c0 .495.423.852 1.123.852h1.478c.765 0 1.139-.296 1.139-.744 0-1.75-5.252-.619-5.252-3.622 0-1.254 1.056-2.09 2.601-2.09h1.399c1.463 0 2.601 1.005 2.601 2.306v.139h-1.626v-.139c0-.495-.407-.867-.975-.867h-1.399c-.683 0-.975.264-.975.65 0 1.255 5.252.466 5.252 3.623 0 1.3-1.123 2.182-2.764 2.182h-1.479Zm8.469 0c-1.609 0-2.926-1.27-2.926-2.8V16.39c0-1.548 1.317-2.787 2.926-2.787h1.301c1.577 0 2.847 1.161 2.926 2.632v1.671h-5.527v.791c0 .681.585 1.238 1.3 1.238h1.301c.716 0 1.302-.558 1.302-1.24v-.153h1.625v.155c0 1.532-1.301 2.801-2.927 2.801h-1.301Zm-1.3-4.83h3.901v-.278c0-.696-.568-1.239-1.3-1.239h-1.301c-.732 0-1.3.558-1.3 1.24v.278-.001Z"/><path fill-rule="evenodd" d="M2.982-.186H37.37v32.37H2.982V-.187Zm12.183 8.57v14.48h5.715c2.197 0 3.954-1.655 3.954-3.723v-.827c0-1.18-.572-2.215-1.45-2.896a3.521 3.521 0 0 0 1.011-2.483v-.828c0-2.068-1.758-3.723-3.956-3.723h-5.274Zm5.715 12.412h-3.517v-4.137h3.515c.99 0 1.759.724 1.759 1.655v.827c0 .93-.768 1.655-1.757 1.655Zm-.44-6.207h-3.077v-4.135h3.078c.987 0 1.757.725 1.757 1.654v.828c0 .931-.77 1.653-1.759 1.653Z" clip-rule="evenodd"/></g></svg>
