<svg xmlns="http://www.w3.org/2000/svg" width="144" height="32" fill="none"><g fill="#131316" clip-path="url(#a)"><path d="m24.581 20.221-.375.375-.375.376-1.862 1.862a.53.53 0 0 0 0 .75l1.862 1.863a.53.53 0 0 0 .75 0l12.69-12.689a.53.53 0 0 0 0-.75l-6.222-6.222a1.46 1.46 0 0 0-.906-.375H18.27a1.49 1.49 0 0 0-.905.375l-6.209 6.222a.53.53 0 0 0 0 .75l7.464 7.463a.53.53 0 0 0 .75 0l1.862-1.862a.53.53 0 0 0 0-.75l-4.863-4.864a.53.53 0 0 1 0-.75l2.535-2.535a1.46 1.46 0 0 1 .905-.375h8.822c.285 0 .698.168.905.362l2.536 2.535a.53.53 0 0 1 0 .75l-7.477 7.476-.013.013Z"/><path fill-rule="evenodd" d="M48.82 11.465c-3.737 0-5.988 2.936-5.988 6.52 0 3.582 2.276 6.544 5.989 6.544 1.513 0 2.716-.517 3.634-1.539v.66c0 .44.22.66.66.66h2.121c.44 0 .66-.22.66-.66V7.093c0-.44-.22-.66-.66-.66h-2.12c-.44 0-.66.22-.66.66v5.911c-.906-1.021-2.122-1.539-3.635-1.539Zm.492 3.208c1.928 0 3.13 1.436 3.13 3.298 0 1.863-1.202 3.299-3.13 3.299-1.927 0-3.156-1.436-3.156-3.299 0-1.862 1.242-3.298 3.156-3.298Z" clip-rule="evenodd"/><path d="M58.91 12.305v7.088c0 3.105 1.785 5.11 4.954 5.11 1.488 0 2.665-.466 3.518-1.372v.583c0 .388.22.582.66.582h2.121c.44 0 .66-.22.66-.66v-11.33c0-.44-.22-.66-.66-.66h-2.121c-.44 0-.66.22-.66.66v6.544c0 1.565-.802 2.755-2.47 2.755-1.669 0-2.561-1.151-2.561-2.755v-6.545c0-.44-.22-.66-.66-.66H59.57c-.44 0-.66.22-.66.66ZM74.496 24.296c-.44 0-.66-.22-.66-.66v-11.33c0-.44.22-.66.66-.66h2.12c.44 0 .66.22.66.66v1.616c.88-1.397 2.148-2.225 3.765-2.418.465-.052.685.168.685.633v1.902c0 .414-.22.633-.634.66-2.56.245-3.815 1.513-3.815 3.79v5.134c0 .44-.22.66-.66.66h-2.121v.013Z"/><path fill-rule="evenodd" d="M88.907 11.465c-3.738 0-5.989 2.936-5.989 6.52 0 3.582 2.276 6.544 5.989 6.544 1.513 0 2.716-.517 3.634-1.54v.66c0 .44.22.66.66.66h2.121c.44 0 .66-.22.66-.66V12.307c0-.44-.22-.66-.66-.66h-2.121c-.44 0-.66.22-.66.66v.685c-.905-1.021-2.12-1.539-3.634-1.539v.013Zm.491 3.208c1.928 0 3.13 1.436 3.13 3.298 0 1.863-1.203 3.299-3.13 3.299-1.927 0-3.156-1.436-3.156-3.299 0-1.862 1.242-3.298 3.156-3.298ZM102.423 22.977v.66c0 .44-.22.66-.66.66h-2.12c-.44 0-.66-.22-.66-.66V7.093c0-.44.22-.66.66-.66h2.12c.44 0 .66.22.66.66v5.911c.905-1.021 2.121-1.539 3.635-1.539 3.738 0 5.988 2.936 5.988 6.52 0 3.582-2.276 6.544-5.988 6.544-1.514 0-2.717-.517-3.635-1.539v-.013Zm6.299-5.006c0-1.862-1.241-3.298-3.156-3.298-1.914 0-3.13 1.436-3.13 3.298 0 1.863 1.216 3.299 3.13 3.299 1.915 0 3.156-1.436 3.156-3.299Z" clip-rule="evenodd"/><path d="M114.605 23.637c0 .44.22.66.66.66h2.121c.44 0 .66-.22.66-.66l.026-16.544c0-.44-.22-.66-.66-.66h-2.147c-.44 0-.66.22-.66.66v16.544Z"/><path fill-rule="evenodd" d="M120.621 17.97c0-3.764 2.445-6.57 6.299-6.57 3.855 0 6.08 2.858 6.08 6.57v.272c0 .44-.22.66-.66.66h-8.408c.324 1.681 1.54 2.716 3.131 2.716 1.047 0 1.901-.298 2.587-.906a.685.685 0 0 1 .517-.22c.116 0 .246.026.388.143l1.293.957c.22.168.337.336.337.517 0 .117-.052.22-.143.337-1.202 1.397-2.858 2.12-4.979 2.12-3.855 0-6.429-2.806-6.429-6.596h-.013Zm9.158-1.229c-.362-1.655-1.397-2.612-2.859-2.612-1.461 0-2.613.957-2.936 2.612h5.795Z" clip-rule="evenodd"/></g><defs><clipPath id="a"><path fill="#fff" d="M11 5.411h122V25.59H11z"/></clipPath></defs></svg>
