<svg xmlns="http://www.w3.org/2000/svg" width="104" height="42" fill="none">
  <path d="M45.8295 35.7732C43.9321 34.0388 43.3782 30.3945 44.1687 27.7542C45.5394 29.4188 47.4386 29.9462 49.4058 30.2438C52.4428 30.7031 55.4253 30.5313 58.2465 29.1433C58.5692 28.9843 58.8675 28.773 59.2201 28.559C59.4848 29.327 59.5537 30.1023 59.4613 30.8914C59.2365 32.8133 58.28 34.2978 56.7589 35.4232C56.1506 35.8733 55.5069 36.2757 54.8787 36.7001C52.9486 38.0046 52.4265 39.5342 53.1517 41.759C53.1689 41.8136 53.1843 41.8677 53.2233 42C52.2379 41.5588 51.5181 40.9166 50.9696 40.0723C50.3904 39.1814 50.1148 38.1957 50.1002 37.1291C50.093 36.6101 50.093 36.0864 50.0232 35.5747C49.8528 34.3272 49.2671 33.7687 48.1638 33.7365C47.0316 33.7035 46.1359 34.4035 45.8984 35.5059C45.8803 35.5904 45.854 35.674 45.8277 35.7723L45.8295 35.7732Z" fill="white"/>
  <path d="M45.8295 35.7732C43.9321 34.0388 43.3782 30.3945 44.1687 27.7542C45.5394 29.4188 47.4386 29.9462 49.4058 30.2438C52.4428 30.7031 55.4253 30.5313 58.2465 29.1433C58.5692 28.9843 58.8675 28.773 59.2201 28.559C59.4848 29.327 59.5537 30.1023 59.4613 30.8914C59.2365 32.8133 58.28 34.2978 56.7589 35.4232C56.1506 35.8733 55.5069 36.2757 54.8787 36.7001C52.9486 38.0046 52.4265 39.5342 53.1517 41.759C53.1689 41.8136 53.1843 41.8677 53.2233 42C52.2379 41.5588 51.5181 40.9166 50.9696 40.0723C50.3904 39.1814 50.1148 38.1957 50.1002 37.1291C50.093 36.6101 50.093 36.0864 50.0232 35.5747C49.8528 34.3272 49.2671 33.7687 48.1638 33.7365C47.0316 33.7035 46.1359 34.4035 45.8984 35.5059C45.8803 35.5904 45.854 35.674 45.8277 35.7723L45.8295 35.7732Z" fill="url(#paint0_linear_21_64)"/>
  <path d="M35 27.3144C35 27.3144 40.6185 24.5773 46.2528 24.5773L50.5008 11.4304C50.6598 10.7947 51.1242 10.3626 51.6484 10.3626C52.1727 10.3626 52.6371 10.7947 52.7961 11.4304L57.0442 24.5773C63.717 24.5773 68.2969 27.3144 68.2969 27.3144C68.2969 27.3144 58.7534 1.31587 58.7347 1.26371C58.4608 0.49505 57.9984 0 57.375 0H45.9229C45.2995 0 44.8558 0.49505 44.5632 1.26371C44.5426 1.31489 35 27.3144 35 27.3144Z" fill="white"/>
  <defs>
    <linearGradient id="paint0_linear_21_64" x1="43.8201" y1="42" x2="62.1411" y2="33.3436" gradientUnits="userSpaceOnUse">
      <stop stop-color="#D83333"/>
      <stop offset="1" stop-color="#F041FF"/>
    </linearGradient>
  </defs>
</svg>
