<svg width="58" height="24" viewBox="0 0 58 24" fill="none" xmlns="http://www.w3.org/2000/svg">
  <path
    fill-rule="evenodd"
    clip-rule="evenodd"
    d="M57.4981 13.8033H49.7951C49.9767 15.6351 51.3243 16.2235 52.8534 16.2235C54.4207 16.2235 55.6823 15.8724 56.724 15.3219V18.4729C55.402 19.2283 53.8894 19.5907 52.366 19.517C48.5336 19.517 45.8385 17.1442 45.8385 12.4176C45.8385 8.44083 48.1227 5.28029 51.8595 5.28029C55.6058 5.28029 57.5554 8.39338 57.5554 12.3986C57.5554 12.7783 57.5172 13.5945 57.4981 13.8033ZM51.8403 8.46931C50.856 8.46931 49.7665 9.16216 49.7665 10.918H53.8282C53.8282 9.16216 52.8056 8.46931 51.8403 8.46931ZM39.636 19.517C38.2598 19.517 37.4188 18.9475 36.8645 18.5299L36.8454 22.9243L32.9079 23.75V5.53655H36.5013L36.5778 6.50464C37.4112 5.71953 38.5159 5.28138 39.6647 5.28029C42.4362 5.28029 45.0357 7.74798 45.0357 12.3037C45.0357 17.2676 42.4553 19.517 39.636 19.517ZM38.7281 8.74455C37.8202 8.74455 37.2563 9.06725 36.8454 9.51333L36.8645 15.3219C37.2468 15.7395 37.8011 16.0622 38.7281 16.0622C40.1808 16.0622 41.1556 14.4962 41.1556 12.3891C41.1556 10.3485 40.1617 8.74455 38.7281 8.74455ZM27.489 5.53655H31.4361V19.2417H27.489V5.53655ZM27.489 1.07573L31.4361 0.25V3.43901L27.489 4.27423V1.08522V1.07573ZM23.3604 9.94992V19.2417H19.4229V5.53655H22.959L23.0737 6.69447C24.0294 5.01454 26.0077 5.35622 26.5333 5.53655V9.13368C26.0364 8.97233 24.3448 8.72557 23.3604 9.94992ZM15.1891 14.4297C15.1891 16.7361 17.674 16.0242 18.1709 15.8154V19.0044C17.6453 19.2892 16.6992 19.517 15.409 19.517C14.8712 19.5325 14.3359 19.4393 13.8356 19.243C13.3353 19.0466 12.8804 18.7512 12.4987 18.3748C12.117 17.9983 11.8163 17.5487 11.6151 17.0533C11.4139 16.5578 11.3162 16.0269 11.3281 15.4927L11.3377 2.99293L15.1796 2.1767V5.53655H18.1805V8.88691H15.1891V14.4392V14.4297ZM10.4966 15.0941C10.4966 17.913 8.28898 19.517 5.02047 19.517C3.55377 19.5159 2.10295 19.2154 0.75804 18.6343V14.9043C2.07691 15.6161 3.72072 16.1476 5.02047 16.1476C5.89972 16.1476 6.4827 15.9198 6.4827 15.1985C6.4827 13.3193 0.5 14.0216 0.5 9.69366C0.5 6.93174 2.679 5.28029 5.87105 5.28029C7.1708 5.28029 8.47056 5.47011 9.77987 5.99212V9.67468C8.56991 9.04227 7.22848 8.69785 5.86149 8.66862C5.03959 8.66862 4.48528 8.9059 4.48528 9.52282C4.48528 11.2787 10.4966 10.4435 10.4966 15.1036V15.0941Z"
    fill="white"
  />
</svg>
