<svg xmlns="http://www.w3.org/2000/svg" width="144" height="32" fill="none"><g clip-path="url(#a)"><path fill="#131316" d="M127.195 22.392c-2.327 0-4.171-1.164-4.267-3.201h2.327c.098.776.971 1.455 2.135 1.455.97 0 1.745-.485 1.745-1.261 0-.757-.911-.97-1.455-1.067l-1.552-.291c-1.066-.194-3.006-.68-3.006-2.62s1.746-3.103 4.073-3.103c2.135 0 3.978 1.164 4.075 3.104h-2.328c-.098-.776-.971-1.358-1.94-1.358-.776 0-1.553.388-1.553 1.164 0 .679.718.834 1.436.97l1.552.29c1.067.195 3.027.777 3.027 2.717 0 2.037-1.746 3.201-4.269 3.201ZM116.821 22.392c-2.328 0-3.686-1.358-3.686-3.88v-6.014h2.328v5.723c0 1.552.776 2.231 1.94 2.231 1.358 0 2.037-1.067 2.037-2.425v-5.529h2.328v9.7h-2.231v-1.164c-.388.582-1.164 1.358-2.716 1.358ZM107.796 22.392c-2.329 0-4.171-1.164-4.269-3.201h2.329c.096.776.969 1.455 2.134 1.455.97 0 1.746-.485 1.746-1.261 0-.757-.912-.97-1.455-1.067l-1.552-.291c-1.068-.194-3.008-.68-3.008-2.62s1.746-3.103 4.075-3.103c2.134 0 3.977 1.164 4.074 3.104h-2.328c-.097-.776-.97-1.358-1.94-1.358-.777 0-1.553.388-1.553 1.164 0 .679.719.834 1.436.97l1.552.29c1.067.195 3.026.777 3.026 2.717 0 2.037-1.745 3.201-4.267 3.201ZM96.065 22.198h-2.329v-9.7h2.231v1.164c.389-.582 1.358-1.358 2.91-1.358 2.328 0 3.59 1.552 3.59 3.88v6.014h-2.328v-5.723c0-1.552-.68-2.231-1.843-2.231-1.553 0-2.231 1.067-2.231 2.619v5.335ZM92.57 17.736v.388h-7.082c.252 1.649 1.319 2.425 2.62 2.425 1.163 0 1.94-.66 2.328-1.436l1.94.757c-.777 1.552-2.135 2.522-4.269 2.522-3.007 0-4.947-1.94-4.947-5.044 0-2.91 1.94-5.044 4.753-5.044 3.007 0 4.656 2.134 4.656 5.432Zm-7.082-1.261h4.753c0-1.455-1.067-2.328-2.328-2.328s-2.173.756-2.425 2.328ZM78.307 22.392c-2.328 0-4.17-1.164-4.268-3.201h2.328c.097.776.97 1.455 2.134 1.455.97 0 1.746-.485 1.746-1.261 0-.757-.912-.97-1.455-1.067l-1.552-.291c-1.067-.194-3.007-.68-3.007-2.62s1.746-3.103 4.074-3.103c2.134 0 3.977 1.164 4.074 3.104h-2.328c-.097-.776-.97-1.358-1.94-1.358-.776 0-1.552.388-1.552 1.164 0 .679.718.834 1.436.97l1.552.29c1.067.195 3.026.777 3.026 2.717 0 2.037-1.746 3.201-4.268 3.201ZM66.574 22.198h-2.328v-9.7h2.231v1.164c.388-.582 1.358-1.358 2.91-1.358 2.328 0 3.59 1.552 3.59 3.88v6.014h-2.329v-5.723c0-1.552-.679-2.231-1.843-2.231-1.552 0-2.23 1.067-2.23 2.619v5.335ZM58.142 22.392c-2.813 0-4.947-1.94-4.947-5.044 0-2.91 2.134-5.044 4.947-5.044 2.814 0 4.948 2.134 4.948 5.044 0 3.104-2.134 5.044-4.948 5.044Zm0-1.94c1.65 0 2.62-1.164 2.62-3.104 0-1.746-.97-3.104-2.62-3.104-1.649 0-2.619 1.358-2.619 3.104 0 1.94.97 3.104 2.62 3.104ZM46.592 22.393c-3.686 0-6.402-2.91-6.402-6.597 0-3.686 2.716-6.596 6.402-6.596 3.492 0 5.626 2.522 6.014 5.044h-2.328c-.388-1.552-1.552-2.91-3.686-2.91-2.328 0-4.075 1.746-4.075 4.462 0 2.716 1.746 4.463 4.075 4.463 2.134 0 3.298-1.358 3.686-2.91h2.328c-.388 2.522-2.522 5.044-6.014 5.044Z"/><mask id="b" width="20" height="22" x="13" y="5" maskUnits="userSpaceOnUse" style="mask-type:luminance"><path fill="#fff" d="M32.04 5.8H13v20.4h19.04V5.8Z"/></mask><g fill="#131316" mask="url(#b)"><path d="M13.852 11.92a3.925 3.925 0 0 1 2.719.027l.51.2a3.404 3.404 0 0 1 1.656 1.384 5.1 5.1 0 0 1 7.387-1.71c1.154.807 2.668 1.406 3.93.78 1.261-.625 1.797-2.185.879-3.253a10.2 10.2 0 0 0-17.081 2.572ZM31.485 21.849c.822-1.144.151-2.65-1.16-3.163l-.51-.2c-1.03-.403-2.171.15-2.938.947a5.1 5.1 0 0 1-8.776-3.432c-.022-1.106-.486-2.285-1.516-2.688l-.51-.2c-1.311-.512-2.826.14-2.998 1.538a10.2 10.2 0 0 0 1.022 5.854l-1.03 3.98a1.36 1.36 0 0 0 1.68 1.65l3.934-1.09a10.222 10.222 0 0 0 4.72 1.052 10.201 10.201 0 0 0 8.082-4.248Z"/></g></g><defs><clipPath id="a"><path fill="#fff" d="M13 5.12h119v21.76H13z"/></clipPath></defs></svg>
