<svg width="339" height="139" viewBox="0 0 339 139" fill="none" xmlns="http://www.w3.org/2000/svg">
<g clip-path="url(#clip0_10404_7766)">
<path fill-rule="evenodd" clip-rule="evenodd" d="M25.4646 38.4413C24.1207 39.2326 20.6157 41.2741 17.676 42.9778L12.3309 46.0757L12.2253 50.4626L12.1197 54.8495L10.6942 55.5201C9.82846 55.9273 9.37172 56.3569 9.53073 56.614C9.69388 56.8787 9.62283 56.9328 9.34127 56.7588C9.08302 56.5994 7.76995 57.146 6.26931 58.0373L3.64844 59.5943L3.74881 68.6809L3.84955 77.7671L7.9846 80.0978L12.1197 82.4284L12.3076 86.309L12.4956 90.1899L16.9501 92.7262C19.4 94.1216 21.5829 95.1523 21.8009 95.0178C22.0513 94.8629 22.0844 94.9561 21.8896 95.2704C21.6645 95.635 21.7551 95.7023 22.2272 95.5207C22.5821 95.3847 22.7858 95.4132 22.6802 95.5843C22.5742 95.7553 23.2001 96.2895 24.0703 96.771C24.9406 97.2526 26.0559 97.9567 26.5491 98.3352C27.0423 98.7141 27.6877 99.0239 27.9832 99.0239C28.2791 99.0239 29.953 98.1781 31.7032 97.1443C33.4535 96.1105 34.9572 95.2647 35.0447 95.2647C35.1323 95.2647 36.6781 96.1128 38.4795 97.1496C40.5688 98.3517 42.0067 98.9547 42.4491 98.8141C42.831 98.6931 43.0303 98.4108 42.8919 98.1867C42.7514 97.9597 42.8138 97.8871 43.0333 98.0228C43.5855 98.3638 50.7053 94.1535 50.4031 93.6641C50.2617 93.4359 50.3384 93.3803 50.5846 93.5322C51.1305 93.8693 55.0076 91.6913 54.8704 91.1248C54.8137 90.8899 54.9355 90.8019 55.1415 90.9293C55.3471 91.0564 56.0222 90.8985 56.6414 90.5782L57.7668 89.9963L57.874 86.1736L57.9811 82.351L61.1764 80.5173C62.9338 79.5091 64.7521 78.4355 65.2175 78.1317C66.0561 77.584 66.0633 77.5039 66.0603 68.4722L66.0572 59.365L61.9369 56.9877L57.8165 54.6101L57.7108 50.2213C57.6169 46.3193 57.5327 45.8377 56.9515 45.8836C56.5917 45.9118 56.385 45.7937 56.4921 45.6205C56.765 45.1791 55.2381 44.4247 54.7201 44.7449C54.4814 44.8923 54.3964 44.8423 54.5268 44.631C54.6554 44.4235 54.3009 44.0202 53.7393 43.7349C53.1777 43.4496 51.4071 42.4079 49.805 41.4204C48.2029 40.4325 46.889 39.7524 46.886 39.9088C46.8826 40.0652 46.756 40.0152 46.6041 39.7976C46.0147 38.9532 43.5701 37.7484 42.8931 37.9687C42.3619 38.1416 42.3183 38.1074 42.7123 37.8266C43.1306 37.5285 43.078 37.4075 42.4424 37.2056C41.8747 37.0256 40.7477 37.4894 38.434 38.8563C36.6638 39.9017 35.0936 40.7569 34.9448 40.7565C34.7963 40.7561 33.2686 39.9103 31.5506 38.8769C29.8323 37.8435 28.3099 36.9989 28.1674 37C28.0246 37.0011 26.8085 37.6496 25.4646 38.4413ZM28.7129 40.2956C28.614 40.4554 29.6613 41.2388 31.0401 42.0365L33.5467 43.4868L33.4682 54.4334C33.4249 60.4536 33.3825 65.5912 33.3742 65.8495C33.3558 66.4073 31.6262 66.4852 31.2912 65.9435C30.8913 65.2965 28.8824 65.533 28.096 66.3194C27.1374 67.278 27.1419 68.2162 28.1106 69.2556C29.0004 70.2112 29.9707 70.2947 31.4262 69.5421C33.3937 68.5245 33.4125 68.6335 33.4264 81.2071L33.4392 92.8213L32.0675 93.4897C31.2397 93.8927 30.7996 94.3257 30.9578 94.5813C31.1176 94.84 31.0507 94.9005 30.7864 94.7373C30.5481 94.59 29.8613 94.7599 29.2602 95.1151L28.167 95.7606L21.6472 92.0323L15.127 88.3036L15.0304 85.6756C14.977 84.2302 15.086 82.813 15.2721 82.5262C15.4585 82.2397 16.4855 81.9209 17.5546 81.8183C19.7793 81.6044 20.7811 80.6049 20.3781 79.0005C19.8935 77.069 16.8426 76.6845 16.0363 78.4531C15.8265 78.9125 15.2341 79.4869 14.7195 79.7294C13.8842 80.1233 13.4327 79.9658 10.5081 78.261C8.70673 77.2107 7.16549 76.2969 7.08354 76.2296C7.00159 76.1627 6.91701 74.8782 6.89558 73.3753L6.85686 70.6424L8.31616 70.5229C9.11873 70.4571 9.95589 70.5838 10.1769 70.8048C10.7273 71.3551 12.3553 71.2886 13.1534 70.683C13.9846 70.0522 14.0037 68.2828 13.1891 67.3828C12.5317 66.6562 10.8227 66.4592 10.2213 67.0404C10.0247 67.2302 9.18753 67.4415 8.36052 67.5099L6.85686 67.6343L6.7486 64.3816L6.64071 61.1291L10.0555 59.1751C13.2312 57.3576 13.5481 57.2531 14.5808 57.6805C15.1912 57.9335 15.6908 58.2572 15.6908 58.4C15.6908 58.5425 16.0359 59.0297 16.4573 59.4819C17.7835 60.9055 19.9029 60.3104 20.3879 58.3782C20.7172 57.0663 19.5518 55.6983 18.1117 55.7051C17.5039 55.7081 16.5355 55.4356 15.96 55.0995C14.9247 54.4954 14.9142 54.4518 15.0202 51.1562L15.127 47.8241L16.8186 46.8877C17.749 46.3727 19.7789 45.2257 21.3295 44.3386C22.8802 43.4518 24.9947 42.262 26.0285 41.6952C27.0622 41.1283 28.0685 40.5163 28.2651 40.3347C28.7065 39.9276 28.9534 39.9062 28.7129 40.2956ZM42.6626 40.39C42.6108 40.6016 45.3324 42.3519 48.71 44.2799L54.8513 47.7853V51.2866C54.8513 55.1871 54.6761 55.4716 52.1545 55.6682C49.8445 55.8483 48.7769 58.0549 50.2749 59.5529C51.5631 60.8412 53.3672 60.3867 54.3596 58.5237C55.3061 56.7464 56.6218 56.9982 61.2843 59.8499L63.4593 61.1803L63.3518 64.4079C63.2447 67.6095 63.2364 67.634 62.3041 67.5088C61.7872 67.4389 61.2035 67.2276 61.0072 67.0389C60.3979 66.4525 58.9562 66.66 58.1691 67.4471C57.2549 68.3613 57.203 69.5943 58.0394 70.5187C58.704 71.2533 60.6031 71.454 60.9884 70.8303C61.1162 70.6236 61.7181 70.4544 62.3263 70.4544H63.4319V73.2509V76.0477L59.9547 78.0986C56.1282 80.3556 55.8937 80.3639 53.9611 78.3016C52.7691 77.0292 51.4932 76.9183 50.3459 77.9874C48.6118 79.6027 49.6396 81.4815 52.4511 81.8367C54.8261 82.1363 54.9911 82.3953 54.8516 85.6034L54.7295 88.4137L51.7605 90.0117C50.1223 90.8932 48.8972 91.7811 49.0272 91.9917C49.1569 92.2018 49.0893 92.2661 48.8769 92.1345C48.6641 92.0033 47.0037 92.7292 45.1869 93.7475L41.8837 95.5993L39.2189 94.128L36.554 92.6567L36.4548 80.9917L36.3556 69.3267H37.4664C38.0772 69.3267 38.6817 69.4959 38.8095 69.7026C39.5512 70.9025 42.7566 69.3763 42.7566 67.823C42.7566 66.2698 39.5512 64.7436 38.8095 65.9435C38.6817 66.1502 38.0844 66.3194 37.4822 66.3194H36.3871L36.2826 54.7018C36.2251 48.312 36.3048 43.1624 36.4593 43.2582C36.863 43.5078 38.9933 42.1823 38.7697 41.8203C38.6667 41.6538 38.8279 41.6117 39.1279 41.7271C39.4279 41.8421 39.8012 41.7294 39.9572 41.4768C40.1508 41.1632 40.0846 41.114 39.7493 41.3211C39.4211 41.5237 39.3478 41.4786 39.5294 41.185C39.679 40.943 39.9546 40.84 40.1421 40.9557C40.3297 41.0715 40.9526 40.9121 41.5259 40.6009C42.7961 39.9122 42.7788 39.9152 42.6626 40.39ZM87.3956 42.7308C87.2952 43.1962 86.4427 45.9449 85.5006 48.8394C84.156 52.9699 74.7149 82.1717 73.7375 85.2222C73.5391 85.8421 73.8296 85.8849 77.5617 85.7861L81.6013 85.6789L83.0358 81.3559C83.8248 78.9783 84.4729 76.9878 84.4766 76.9326C84.48 76.8769 88.6624 76.8769 93.7703 76.9326L103.058 77.0329L104.406 81.3559L105.754 85.6789L109.824 85.7861C113.602 85.8857 113.876 85.8451 113.633 85.2222C113.334 84.4557 100.752 44.969 100.214 43.1067L99.8602 41.885H93.7192C87.655 41.885 87.5757 41.8955 87.3956 42.7308ZM119.443 63.5C119.443 75.3883 119.401 85.2418 119.349 85.397C119.298 85.5523 120.801 85.7274 122.691 85.7865L126.126 85.894L126.524 84.7527C126.743 84.1249 127.008 83.6114 127.113 83.6114C127.218 83.6114 127.884 84.005 128.593 84.4862C132.3 87.0022 137.879 87.263 142.224 85.1241C146.504 83.0175 149.143 78.8565 149.906 73.014C150.968 64.8826 147.776 57.8963 141.662 54.9668C139.498 53.93 138.767 53.7736 135.983 53.7515C132.52 53.724 130.411 54.3405 128.183 56.0321L126.961 56.9599V49.4224V41.885H123.202H119.443V63.5ZM331.458 63.8759V85.8669H335.217H338.977V63.8759V41.885H335.217H331.458V63.8759ZM23.4185 48.3594C22.2043 50.0927 23.2674 52.4106 25.2766 52.4106C26.213 52.4106 26.2164 52.4241 26.2164 55.9686C26.2164 59.1582 26.1375 59.5687 25.4541 59.9345C25.0349 60.1589 24.7898 60.5014 24.9097 60.6953C25.0297 60.8893 24.9075 60.9686 24.6383 60.872C24.3692 60.7754 23.3407 61.2897 22.3528 62.0155L20.5567 63.3346L20.6612 68.4207L20.7657 73.5072L23.3707 74.6057C24.8037 75.2097 26.1153 75.9187 26.286 76.1807C26.7337 76.8698 26.5713 82.2213 26.0743 83.1502C25.651 83.9407 25.565 83.9873 24.5248 83.9873C23.7155 83.9873 22.4573 85.3598 22.4573 86.2428C22.4573 87.3424 23.7948 88.4983 25.0672 88.4983C26.2292 88.4983 27.3442 87.3739 27.3442 86.2026C27.3442 85.8586 27.7719 85.2974 28.2945 84.9549C29.2433 84.3332 29.2448 84.3253 29.1403 79.1993L29.0358 74.0662L26.2164 72.8483L23.3971 71.6307V68.1441V64.6575L26.3002 62.7632L29.2034 60.8686L29.2136 56.1032C29.2233 51.4618 29.1993 51.3182 28.2839 50.5983C27.7671 50.1916 27.3442 49.6134 27.3442 49.3134C27.3442 47.6444 24.4173 46.9328 23.4185 48.3594ZM43.4427 47.9139C43.0964 48.1161 42.6194 48.868 42.3826 49.5852C42.1458 50.3025 41.7525 50.8509 41.5086 50.8043C41.1894 50.743 41.0357 52.1523 40.9609 55.8325L40.8564 60.9461L43.8742 62.9065L46.8917 64.8672V68.1708V71.4743L43.8844 72.8298L40.877 74.185V79.2087C40.877 84.0809 40.9052 84.2587 41.8168 85.1151C42.3337 85.6007 42.7566 86.2973 42.7566 86.6631C42.7566 88.0814 45.2858 88.9817 46.5548 88.0149C48.1247 86.8195 47.4826 83.9873 45.6425 83.9873C44.1471 83.9873 43.8844 83.3118 43.8844 79.4692V75.8529L46.7037 74.6139L49.5231 73.3749L49.5107 68.2497L49.4983 63.1241L46.6913 61.3209L43.8844 59.518V55.9641C43.8844 52.4861 43.9032 52.4106 44.7666 52.4106C46.0846 52.4106 47.2676 51.1994 47.2676 49.8502C47.2676 48.0128 45.1286 46.9301 43.4427 47.9139ZM97.4107 59.4052C99.1907 65.0097 100.647 69.7037 100.647 69.8368C100.647 69.9699 97.5178 70.0785 93.6929 70.0785C89.5361 70.0785 86.7385 69.9345 86.7385 69.7203C86.7385 69.5233 86.9002 68.9733 87.0979 68.4986C87.2956 68.0238 88.832 63.344 90.5127 58.0997C92.193 52.8549 93.7042 48.7105 93.8707 48.8898C94.0376 49.0687 95.6304 53.8007 97.4107 59.4052ZM167.292 54.0838C166.42 54.3559 164.952 55.0213 164.029 55.5622C163.107 56.1032 162.246 56.5456 162.117 56.5456C161.988 56.5456 161.705 56.0381 161.489 55.4179L161.096 54.2901H157.749H154.403V70.0785V85.8669H158.145H161.888L161.998 75.4022L162.109 64.9375L163.234 63.3158C164.594 61.3547 166.067 60.6807 168.995 60.6807C170.836 60.6807 171.457 60.8622 172.703 61.7648C175.489 63.7831 175.627 64.4203 175.753 75.8112L175.865 85.8669H179.606H183.348V75.3808C183.348 63.5824 183.015 61.5224 180.596 58.35C177.631 54.4631 171.929 52.6346 167.292 54.0838ZM200.366 53.9345C194.716 55.0495 190.623 59.0165 189.145 64.8112C188.277 68.2084 188.561 74.3102 189.728 77.3502C192.12 83.5832 198.213 87.0867 205.666 86.515C209.801 86.1977 212.452 85.0252 215.131 82.3288C216.382 81.0699 217.756 79.279 218.186 78.3486C220.453 73.4324 220.334 66.1393 217.908 61.3836C214.93 55.5464 207.717 52.4835 200.366 53.9345ZM235.992 54.1608C235.07 54.4834 233.755 55.1754 233.068 55.6987C232.382 56.2223 231.775 56.5847 231.719 56.5039C231.663 56.4235 231.418 55.8923 231.174 55.3239C230.736 54.3052 230.68 54.2901 227.338 54.2901H223.947V70.0785V85.8669H227.706H231.465L231.474 76.563C231.479 71.4457 231.637 66.5957 231.825 65.7845C232.595 62.4659 234.638 61.1408 239.516 60.7968L242.743 60.569V57.0535V53.5383L240.205 53.5564C238.81 53.5661 236.914 53.8383 235.992 54.1608ZM258.969 54.2319C257.865 54.6258 256.477 55.3077 255.883 55.7468C254.47 56.7911 254.266 56.7595 253.759 55.4179L253.334 54.2901H249.918H246.502V70.0785V85.8669H250.225H253.949L254.086 75.6232C254.214 66.116 254.281 65.2533 255.029 63.6207C256 61.4983 257.383 60.6807 260.003 60.6807C261.574 60.6807 262.109 60.8743 263.213 61.8438C265.4 63.7639 265.673 65.3773 265.673 76.3495V85.8669H269.406H273.139L273.259 75.2473C273.391 63.6741 273.474 63.1997 275.678 61.4656C277.009 60.419 280.048 60.3946 281.725 61.4175C284.161 62.9023 284.268 63.4594 284.397 75.2473L284.512 85.8669H288.27H292.028L291.893 74.3076C291.747 61.7742 291.663 61.1829 289.597 58.1688C288.658 56.7997 287.729 56.0366 285.792 55.042C283.408 53.818 282.991 53.727 279.808 53.7387C276.11 53.7518 274.141 54.4349 271.987 56.4532L270.97 57.4053L269.624 56.2227C266.818 53.7594 262.533 52.9587 258.969 54.2319ZM305.962 53.9406C300.367 55.0416 296.37 58.8225 296.054 63.3121L295.934 65.0037H299.644H303.354L303.779 63.7011C304.46 61.6148 306.219 60.6807 309.467 60.6807C312.746 60.6807 314.453 61.1919 315.574 62.5084C316.496 63.5918 316.681 65.1582 315.971 65.8683C315.671 66.1675 314.048 66.3194 311.153 66.3194C304.04 66.3194 300.549 67.2855 297.711 70.0398C295.68 72.0107 294.908 73.8516 294.924 76.6841C294.942 79.65 295.874 81.8416 297.891 83.658C300.15 85.6936 302.684 86.4315 307.4 86.4274C310.9 86.4244 311.594 86.309 313.528 85.4053C314.728 84.8452 316.146 84.043 316.68 83.6231L317.651 82.8596L318.54 83.8182C319.89 85.2756 321.716 85.8669 324.868 85.8669H327.699V82.8596C327.699 80.0711 327.643 79.8523 326.923 79.8523C326.038 79.8523 324.638 79.188 324.228 78.5742C324.076 78.3467 323.949 74.6718 323.946 70.4078C323.939 61.8562 323.709 60.6059 321.668 58.0286C318.95 54.5965 311.923 52.7673 305.962 53.9406ZM138.923 61.9069C141.233 63.4357 142.103 65.4119 142.299 69.574C142.443 72.6456 142.359 73.2381 141.523 75.065C140.996 76.2157 140.026 77.5397 139.31 78.0862C137.856 79.1952 134.945 79.9654 133.434 79.6414C128.706 78.626 126.674 75.244 127.036 68.9914C127.257 65.1849 128.404 62.7294 130.532 61.5122C132.721 60.2597 136.718 60.448 138.923 61.9069ZM207.946 61.4269C211.44 63.1328 213.133 68.585 211.764 73.7249C211.101 76.2153 209.964 77.8062 208.221 78.6821C206.216 79.6899 204.387 79.9222 202.185 79.45C198.399 78.6381 196.479 75.9281 196.211 71.0183C195.947 66.1833 197.171 63.1899 200.088 61.5385C202.075 60.4127 205.761 60.3604 207.946 61.4269ZM316.301 74.0606C315.833 76.9461 313.474 78.7963 309.333 79.526C304.253 80.4207 300.845 77.5626 303.288 74.4568C304.38 73.0693 305.753 72.7825 311.49 72.7437L316.52 72.7099L316.301 74.0606ZM261.21 92.1029C259.237 92.9326 258.636 95.3102 260.068 96.6161C260.5 97.0101 261.642 97.586 262.606 97.8961C263.662 98.236 264.358 98.6841 264.358 99.0239C264.358 99.8024 262.887 99.9426 262.176 99.2318C261.39 98.4461 259.283 98.4495 259.283 99.2366C259.283 101.056 261.754 102.356 264.305 101.878C265.711 101.614 267.177 100.158 267.177 99.0239C267.177 97.8514 265.699 96.4613 263.77 95.8207C262.709 95.4685 261.939 95.0009 262.02 94.7584C262.252 94.0633 263.516 94.0009 263.999 94.661C264.543 95.4053 266.801 95.0832 266.801 94.261C266.801 93.6088 265.141 91.8935 264.469 91.8503C264.201 91.833 263.609 91.7774 263.154 91.7263C262.698 91.6755 261.823 91.845 261.21 92.1029ZM269.516 96.8624L269.62 101.843H272.816H276.011V100.715C276.011 99.6201 275.954 99.5844 274.037 99.4742C272.371 99.3784 272.064 99.2464 272.064 98.6284C272.064 98.0112 272.33 97.8961 273.756 97.8961C275.384 97.8961 275.447 97.8544 275.447 96.7684C275.447 95.6824 275.384 95.6407 273.756 95.6407C272.315 95.6407 272.064 95.5294 272.064 94.8888C272.064 94.228 272.315 94.137 274.131 94.137C276.178 94.137 276.199 94.1257 276.199 93.0093V91.8815H272.805H269.411L269.516 96.8624ZM280.898 92.307C278.816 93.3449 277.811 97.065 278.995 99.3543C280.228 101.74 283.517 102.737 285.969 101.47C287.223 100.821 288.228 99.5287 288.228 98.5641C288.228 97.4856 286.066 97.677 285.154 98.8359C283.038 101.526 279.685 97.8074 281.671 94.9727C282.455 93.8536 284.543 93.8212 285.271 94.917C285.672 95.52 286.105 95.6692 287.18 95.5749L288.572 95.4527L287.968 94.2114C287.635 93.5288 286.89 92.7254 286.311 92.4258C285.121 91.8105 282.031 91.7424 280.898 92.307ZM290.919 95.8211C291.039 99.4908 291.115 99.8279 292.037 100.749C293.328 102.039 295.871 102.375 297.593 101.484C299.285 100.609 299.882 98.9423 299.882 95.0888V91.8815H298.566H297.25V94.993C297.25 98.339 296.687 99.7757 295.376 99.7757C293.901 99.7757 293.491 98.7885 293.491 95.238V91.8815H292.141H290.791L290.919 95.8211ZM302.513 96.9564V102.031H303.829C305.137 102.031 305.144 102.022 305.144 100.34C305.144 98.1386 305.913 98.0988 307.093 100.238C307.854 101.617 308.157 101.842 309.376 101.936C310.15 101.995 310.783 101.951 310.783 101.837C310.783 101.723 310.383 100.832 309.894 99.8573C309.026 98.1254 309.021 98.0672 309.706 97.3605C310.753 96.2805 310.639 93.9596 309.484 92.8044C308.658 91.9774 308.247 91.8815 305.537 91.8815H302.513V96.9564ZM313.414 96.98V102.079L314.636 101.961L315.858 101.843L315.963 96.8624L316.068 91.8815H314.741H313.414V96.98ZM317.925 93.0093C317.925 94.0953 317.988 94.137 319.617 94.137H321.309V98.1078V102.079L322.53 101.961L323.752 101.843L323.859 97.9901L323.966 94.137H325.457C326.862 94.137 326.947 94.0727 326.947 93.0093V91.8815H322.436H317.925V93.0093ZM328.451 92.0469C328.451 92.1379 329.296 93.6179 330.33 95.3362C331.891 97.9315 332.209 98.7664 332.209 100.269L332.21 102.079L333.432 101.961C334.623 101.846 334.657 101.794 334.767 99.8738C334.857 98.3168 335.231 97.336 336.553 95.1922C337.472 93.7006 338.225 92.3454 338.225 92.1807C338.225 92.0161 337.59 91.8815 336.814 91.8815C335.526 91.8815 335.326 92.0285 334.507 93.5731C334.013 94.5035 333.506 95.2647 333.379 95.2647C333.252 95.2647 332.745 94.5035 332.251 93.5731C331.425 92.0153 331.239 91.8815 329.902 91.8815C329.104 91.8815 328.451 91.9559 328.451 92.0469ZM307.706 95.1576C307.795 95.7816 307.589 96.0493 306.882 96.2267C305.65 96.5361 305.144 96.1884 305.144 95.0309C305.144 94.1953 305.282 94.1024 306.366 94.2073C307.296 94.2968 307.616 94.5238 307.706 95.1576Z" fill="black"/>
</g>
<defs>
<clipPath id="clip0_10404_7766">
<rect width="337.928" height="139" fill="white" transform="translate(0.882812)"/>
</clipPath>
</defs>
</svg>
