<svg width="24" height="24" viewBox="0 0 24 24" fill="none" xmlns="http://www.w3.org/2000/svg">
<mask id="mask0_11108_14703" style="mask-type:alpha" maskUnits="userSpaceOnUse" x="0" y="0" width="24" height="24">
<rect width="24" height="24" fill="#D9D9D9"/>
</mask>
<g mask="url(#mask0_11108_14703)">
<path d="M5.23075 20C4.89225 20 4.6025 19.8795 4.3615 19.6385C4.1205 19.3975 4 19.1077 4 18.7692C4 18.4307 4.1205 18.141 4.3615 17.9C4.6025 17.659 4.89225 17.5385 5.23075 17.5385C5.56925 17.5385 5.859 17.659 6.1 17.9C6.341 18.141 6.4615 18.4307 6.4615 18.7692C6.4615 19.1077 6.341 19.3975 6.1 19.6385C5.859 19.8795 5.56925 20 5.23075 20ZM18.2727 20C18.0551 20 17.8772 19.914 17.739 19.742C17.6008 19.57 17.5199 19.3662 17.4962 19.1307C17.3897 17.4372 16.9939 15.8478 16.3087 14.3625C15.6234 12.8772 14.7115 11.5653 13.573 10.427C12.4347 9.2885 11.1228 8.37658 9.6375 7.69125C8.15217 7.00608 6.56275 6.61025 4.86925 6.50375C4.63375 6.47958 4.43 6.39708 4.258 6.25625C4.086 6.11525 4 5.94008 4 5.73075C4 5.51208 4.08267 5.33341 4.248 5.19475C4.4135 5.05591 4.602 4.99675 4.8135 5.01725C6.73533 5.12375 8.52792 5.56125 10.1912 6.32975C11.8547 7.09841 13.325 8.12116 14.602 9.398C15.8788 10.675 16.9016 12.1452 17.6702 13.8087C18.4388 15.4721 18.8763 17.2647 18.9827 19.1865C19.0033 19.398 18.9444 19.5865 18.8063 19.752C18.6681 19.9173 18.4902 20 18.2727 20ZM12.7308 20C12.5192 20 12.3436 19.9182 12.2037 19.7547C12.0641 19.5912 11.9783 19.4037 11.9463 19.1922C11.8474 18.2346 11.6009 17.349 11.2067 16.5355C10.8126 15.7222 10.2937 14.9937 9.65 14.35C9.00633 13.7063 8.27783 13.1874 7.4645 12.7932C6.651 12.3991 5.76542 12.1526 4.80775 12.0537C4.59625 12.0217 4.40875 11.9359 4.24525 11.7962C4.08175 11.6564 4 11.4819 4 11.2727C4 11.0551 4.08267 10.8782 4.248 10.7422C4.4135 10.6064 4.602 10.5526 4.8135 10.5807C5.966 10.6832 7.04258 10.9701 8.04325 11.4412C9.04392 11.9124 9.92883 12.5327 10.698 13.302C11.4673 14.0712 12.0876 14.9561 12.5588 15.9567C13.0299 16.9574 13.3168 18.034 13.4193 19.1865C13.4474 19.398 13.3925 19.5865 13.2545 19.752C13.1165 19.9173 12.9419 20 12.7308 20Z" fill="white"/>
</g>
</svg>
