<svg width="637" height="124" viewBox="0 0 637 124" fill="none" xmlns="http://www.w3.org/2000/svg">
<rect width="124" height="124" rx="45.4667" fill="url(#paint0_radial_209_8)"/>
<path d="M62.0001 61.5867C52.9068 49.4471 43.8134 43.4 34.7201 43.4C29.8967 43.4 25.2709 45.3161 21.8602 48.7267C18.4495 52.1374 16.5334 56.7633 16.5334 61.5867C16.5334 66.4101 18.4495 71.0359 21.8602 74.4466C25.2709 77.8572 29.8967 79.7733 34.7201 79.7733C43.8134 79.7733 52.9068 73.7263 62.0001 61.5867ZM62.0001 61.5867C71.0934 73.7263 80.1868 79.7733 89.2801 79.7733C94.1035 79.7733 98.7294 77.8572 102.14 74.4466C105.551 71.0359 107.467 66.4101 107.467 61.5867C107.467 56.7633 105.551 52.1374 102.14 48.7267C98.7294 45.3161 94.1035 43.4 89.2801 43.4C80.1868 43.4 71.0934 49.4471 62.0001 61.5867Z" stroke="white" stroke-opacity="0.9" stroke-width="10.912" stroke-linecap="round" stroke-linejoin="round"/>
<path d="M178.796 92.76C174.736 92.76 170.76 92.186 166.868 91.038C163.004 89.862 159.742 88.182 157.082 85.998L161.702 78.816C163.102 80.02 164.726 81.056 166.574 81.924C168.45 82.792 170.438 83.464 172.538 83.94C174.638 84.388 176.738 84.612 178.838 84.612C182.674 84.612 185.768 83.884 188.12 82.428C190.5 80.972 191.69 78.844 191.69 76.044C191.69 73.944 190.878 72.166 189.254 70.71C187.658 69.254 184.69 67.91 180.35 66.678L174.302 64.914C168.758 63.318 164.712 61.204 162.164 58.572C159.644 55.94 158.384 52.664 158.384 48.744C158.384 46.14 158.902 43.788 159.938 41.688C161.002 39.588 162.486 37.768 164.39 36.228C166.322 34.688 168.59 33.512 171.194 32.7C173.798 31.888 176.654 31.482 179.762 31.482C183.71 31.482 187.378 32.056 190.766 33.204C194.154 34.352 196.954 35.892 199.166 37.824L194.378 44.796C193.174 43.704 191.76 42.766 190.136 41.982C188.54 41.198 186.818 40.596 184.97 40.176C183.122 39.756 181.246 39.546 179.342 39.546C176.99 39.546 174.904 39.896 173.084 40.596C171.292 41.268 169.892 42.248 168.884 43.536C167.876 44.824 167.372 46.392 167.372 48.24C167.372 49.584 167.708 50.76 168.38 51.768C169.052 52.776 170.2 53.7 171.824 54.54C173.476 55.352 175.744 56.178 178.628 57.018L185.012 58.908C190.444 60.504 194.42 62.59 196.94 65.166C199.46 67.714 200.72 71.032 200.72 75.12C200.72 78.62 199.852 81.7 198.116 84.36C196.408 86.992 193.916 89.05 190.64 90.534C187.364 92.018 183.416 92.76 178.796 92.76ZM227.216 92.76C223.492 92.76 220.412 92.018 217.976 90.534C215.568 89.022 213.762 87.034 212.558 84.57C211.354 82.106 210.752 79.418 210.752 76.506V49.92H219.992V74.784C219.992 77.64 220.832 79.936 222.512 81.672C224.22 83.38 226.572 84.234 229.568 84.234C231.528 84.234 233.278 83.8 234.818 82.932C236.358 82.036 237.576 80.79 238.472 79.194C239.396 77.598 239.858 75.75 239.858 73.65V49.92H249.098V91.5H240.782V86.586C239.158 88.546 237.226 90.072 234.986 91.164C232.774 92.228 230.184 92.76 227.216 92.76ZM261.949 109.14V49.92H270.265V55.758C271.917 53.658 274.031 51.95 276.607 50.634C279.183 49.318 282.361 48.66 286.141 48.66C290.201 48.66 293.799 49.626 296.935 51.558C300.099 53.462 302.563 56.08 304.327 59.412C306.091 62.716 306.973 66.482 306.973 70.71C306.973 73.762 306.469 76.632 305.461 79.32C304.453 81.98 303.011 84.318 301.135 86.334C299.287 88.35 297.075 89.932 294.499 91.08C291.951 92.2 289.123 92.76 286.015 92.76C282.767 92.76 279.911 92.172 277.447 90.996C274.983 89.82 272.883 88.238 271.147 86.25V109.14H261.949ZM284.461 84.57C287.037 84.57 289.319 84.01 291.307 82.89C293.323 81.742 294.891 80.132 296.011 78.06C297.159 75.988 297.733 73.538 297.733 70.71C297.733 67.882 297.159 65.432 296.011 63.36C294.863 61.26 293.281 59.65 291.265 58.53C289.277 57.41 287.009 56.85 284.461 56.85C281.885 56.85 279.589 57.41 277.573 58.53C275.585 59.65 274.017 61.26 272.869 63.36C271.721 65.432 271.147 67.882 271.147 70.71C271.147 73.538 271.721 75.988 272.869 78.06C274.017 80.132 275.585 81.742 277.573 82.89C279.589 84.01 281.885 84.57 284.461 84.57ZM335.648 92.76C331.168 92.76 327.234 91.85 323.846 90.03C320.458 88.182 317.812 85.606 315.908 82.302C314.032 78.998 313.094 75.162 313.094 70.794C313.094 67.602 313.64 64.662 314.732 61.974C315.824 59.258 317.364 56.906 319.352 54.918C321.34 52.93 323.664 51.39 326.324 50.298C329.012 49.206 331.938 48.66 335.102 48.66C338.546 48.66 341.612 49.276 344.3 50.508C346.988 51.712 349.214 53.406 350.978 55.59C352.77 57.774 354.03 60.336 354.758 63.276C355.514 66.188 355.64 69.352 355.136 72.768H321.956C321.9 75.26 322.446 77.444 323.594 79.32C324.742 81.168 326.38 82.61 328.508 83.646C330.664 84.682 333.198 85.2 336.11 85.2C338.462 85.2 340.73 84.85 342.914 84.15C345.126 83.422 347.128 82.358 348.92 80.958L352.49 87.594C351.146 88.686 349.522 89.624 347.618 90.408C345.714 91.164 343.726 91.738 341.654 92.13C339.582 92.55 337.58 92.76 335.648 92.76ZM322.502 65.964H346.064C345.98 62.828 344.972 60.364 343.04 58.572C341.136 56.78 338.42 55.884 334.892 55.884C331.476 55.884 328.634 56.78 326.366 58.572C324.126 60.364 322.838 62.828 322.502 65.964ZM364.735 91.5V49.92H373.975V55.674C375.543 53.07 377.447 51.25 379.687 50.214C381.927 49.15 384.335 48.618 386.911 48.618C387.751 48.618 388.549 48.66 389.305 48.744C390.061 48.828 390.789 48.954 391.489 49.122L390.271 58.656C389.431 58.404 388.577 58.208 387.709 58.068C386.841 57.928 385.973 57.858 385.105 57.858C381.885 57.858 379.225 58.852 377.125 60.84C375.025 62.8 373.975 65.474 373.975 68.862V91.5H364.735ZM400.406 91.5V32.7H420.608C426.236 32.7 430.786 33.96 434.258 36.48C437.73 38.972 439.466 42.654 439.466 47.526C439.466 49.402 439.018 51.18 438.122 52.86C437.254 54.512 436.12 55.968 434.72 57.228C433.32 58.488 431.864 59.412 430.352 60C433.544 60.98 436.204 62.772 438.332 65.376C440.488 67.98 441.566 71.186 441.566 74.994C441.566 78.214 440.754 81.07 439.13 83.562C437.506 86.026 435.196 87.972 432.2 89.4C429.204 90.8 425.648 91.5 421.532 91.5H400.406ZM409.814 84.108H419.936C423.968 84.108 426.964 83.324 428.924 81.756C430.884 80.16 431.864 77.766 431.864 74.574C431.864 71.41 430.87 69.002 428.882 67.35C426.922 65.698 423.884 64.872 419.768 64.872H409.814V84.108ZM409.814 57.816H419.138C421.406 57.816 423.366 57.452 425.018 56.724C426.67 55.996 427.958 54.946 428.882 53.574C429.806 52.202 430.268 50.55 430.268 48.618C430.268 45.874 429.288 43.774 427.328 42.318C425.396 40.834 422.624 40.092 419.012 40.092H409.814V57.816ZM452.426 91.5V49.92H461.666V91.5H452.426ZM457.046 42.486C455.394 42.486 453.966 41.954 452.762 40.89C451.558 39.826 450.956 38.426 450.956 36.69C450.956 34.982 451.558 33.596 452.762 32.532C453.966 31.44 455.394 30.894 457.046 30.894C458.698 30.894 460.126 31.44 461.33 32.532C462.534 33.596 463.136 34.982 463.136 36.69C463.136 38.426 462.534 39.826 461.33 40.89C460.126 41.954 458.698 42.486 457.046 42.486ZM474.492 91.5V31.02H483.732V91.5H474.492ZM496.559 91.5V31.02H505.799V91.5H496.559ZM518.625 91.5V49.92H527.865V91.5H518.625ZM523.245 42.486C521.593 42.486 520.165 41.954 518.961 40.89C517.757 39.826 517.155 38.426 517.155 36.69C517.155 34.982 517.757 33.596 518.961 32.532C520.165 31.44 521.593 30.894 523.245 30.894C524.897 30.894 526.325 31.44 527.529 32.532C528.733 33.596 529.335 34.982 529.335 36.69C529.335 38.426 528.733 39.826 527.529 40.89C526.325 41.954 524.897 42.486 523.245 42.486ZM540.692 91.5V49.92H549.932V55.212C551.668 52.888 553.684 51.222 555.98 50.214C558.276 49.178 560.656 48.66 563.12 48.66C566.928 48.66 570.078 49.416 572.57 50.928C575.062 52.44 576.91 54.386 578.114 56.766C579.346 59.146 579.962 61.596 579.962 64.116V91.5H570.722V66.972C570.722 64.004 569.826 61.624 568.034 59.832C566.27 58.04 563.806 57.144 560.642 57.144C558.57 57.144 556.722 57.606 555.098 58.53C553.502 59.454 552.242 60.742 551.318 62.394C550.394 64.018 549.932 65.922 549.932 68.106V91.5H540.692ZM608.751 110.4C605.643 110.4 602.843 110.12 600.351 109.56C597.859 109.028 595.731 108.244 593.967 107.208C592.231 106.172 590.901 104.926 589.977 103.47C589.053 102.014 588.591 100.39 588.591 98.598C588.591 97.17 588.969 95.826 589.725 94.566C590.509 93.306 591.657 92.228 593.169 91.332C594.709 90.408 596.585 89.722 598.797 89.274C597.145 88.434 595.913 87.482 595.101 86.418C594.317 85.354 593.925 84.136 593.925 82.764C593.925 81.588 594.261 80.482 594.933 79.446C595.633 78.382 596.613 77.444 597.873 76.632C599.161 75.792 600.673 75.106 602.409 74.574C604.145 74.042 606.063 73.734 608.163 73.65L610.179 77.682C608.443 77.654 606.959 77.794 605.727 78.102C604.523 78.382 603.585 78.788 602.913 79.32C602.269 79.824 601.947 80.44 601.947 81.168C601.947 82.12 602.493 82.82 603.585 83.268C604.677 83.688 606.217 83.982 608.205 84.15L615.345 84.696C618.845 84.976 621.827 85.55 624.291 86.418C626.783 87.286 628.687 88.504 630.003 90.072C631.347 91.64 632.019 93.628 632.019 96.036C632.019 98.08 631.459 99.97 630.339 101.706C629.247 103.47 627.665 104.996 625.593 106.284C623.549 107.572 621.099 108.58 618.243 109.308C615.387 110.036 612.223 110.4 608.751 110.4ZM609.675 104.016C613.847 104.016 617.123 103.386 619.503 102.126C621.911 100.894 623.115 99.284 623.115 97.296C623.115 95.784 622.317 94.608 620.721 93.768C619.125 92.928 616.689 92.396 613.413 92.172L605.769 91.584C603.977 91.724 602.423 92.06 601.107 92.592C599.819 93.124 598.839 93.81 598.167 94.65C597.495 95.49 597.159 96.442 597.159 97.506C597.159 98.794 597.663 99.928 598.671 100.908C599.679 101.888 601.121 102.644 602.997 103.176C604.873 103.736 607.099 104.016 609.675 104.016ZM609.381 78.312C605.909 78.312 602.787 77.654 600.015 76.338C597.271 75.022 595.101 73.244 593.505 71.004C591.909 68.764 591.111 66.258 591.111 63.486C591.111 60.714 591.909 58.208 593.505 55.968C595.129 53.728 597.313 51.95 600.057 50.634C602.829 49.318 605.937 48.66 609.381 48.66C612.825 48.66 615.919 49.318 618.663 50.634C621.407 51.95 623.577 53.728 625.173 55.968C626.797 58.208 627.609 60.714 627.609 63.486C627.609 66.23 626.811 68.722 625.215 70.962C623.619 73.202 621.449 74.994 618.705 76.338C615.961 77.654 612.853 78.312 609.381 78.312ZM609.381 71.382C611.285 71.382 612.979 71.06 614.463 70.416C615.947 69.744 617.109 68.82 617.949 67.644C618.789 66.44 619.209 65.054 619.209 63.486C619.209 61.134 618.285 59.23 616.437 57.774C614.617 56.29 612.265 55.548 609.381 55.548C607.449 55.548 605.741 55.884 604.257 56.556C602.801 57.228 601.653 58.166 600.813 59.37C599.973 60.546 599.553 61.918 599.553 63.486C599.553 65.81 600.463 67.714 602.283 69.198C604.131 70.654 606.497 71.382 609.381 71.382ZM615.849 57.228L612.405 50.802L634.707 49.92L634.623 57.564L615.849 57.228Z" fill="#EEEEEE"/>
<defs>
<radialGradient id="paint0_radial_209_8" cx="0" cy="0" r="1" gradientUnits="userSpaceOnUse" gradientTransform="translate(62 62) rotate(90) scale(62)">
<stop stop-color="#2E2B2B"/>
<stop offset="0.65" stop-color="#666565"/>
<stop offset="1"/>
</radialGradient>
</defs>
</svg>
