<?xml version="1.0" encoding="UTF-8"?>
<svg id="_레이어_1" data-name="레이어 1" xmlns="http://www.w3.org/2000/svg" viewBox="0 0 353.4 73.88">
  <path d="M26.26,10.5h-15.76C15.05,5.95,20.49,2.83,26.26,1.13v9.37ZM1.13,26.26h9.37v-15.76C5.95,15.05,2.83,20.49,1.13,26.26ZM63.01,10.5C57.1,4.59,49.7,1.1,42.02,0v10.5h-15.76v15.76h15.76v15.76h-15.76v-15.76h-15.76v15.76H0c1.1,7.68,4.59,15.08,10.5,20.98,14.5,14.5,38.01,14.5,52.51,0,14.5-14.5,14.5-38.01,0-52.51Z"/>
  <g>
    <path d="M111.11,54.49c-9.7,0-16.47-7.24-16.47-17.61s6.85-17.49,16.29-17.49c3.84,0,6.85,1.19,9.47,3.74l.5.48v-14.18h9.56v43.96h-9.08v-3.6h-.46l-.11.14c-1.78,3.01-5.04,4.53-9.7,4.53ZM112.79,28.29c-4.9,0-8.59,3.67-8.59,8.53s3.59,8.77,8.53,8.77,8.71-3.77,8.71-8.77-3.72-8.53-8.65-8.53Z"/>
    <path d="M151.23,54.49c-9.61,0-17.43-7.82-17.43-17.43s7.74-17.67,17.25-17.67,17.37,7.72,17.37,17.97c0,.94-.06,1.66-.21,2.44h-25.01l.05.34c.6,3.8,3.8,6.35,7.97,6.35,2.62,0,4.4-.89,6.12-3.08l9.82-.04c-3.16,6.96-9.1,11.11-15.94,11.11ZM151.05,27.39c-3.77,0-6.84,2.3-7.66,5.73l-.09.36h15.61l-.09-.36c-.85-3.48-3.9-5.73-7.78-5.73Z"/>
    <path d="M188.27,54.49c-9.61,0-17.43-7.82-17.43-17.43s7.74-17.67,17.25-17.67,17.37,7.72,17.37,17.97c0,.94-.06,1.66-.21,2.44h-25.01l.05.34c.6,3.8,3.8,6.35,7.97,6.35,2.62,0,4.4-.89,6.12-3.08l9.82-.04c-3.16,6.96-9.1,11.11-15.94,11.11ZM188.09,27.39c-3.77,0-6.84,2.3-7.66,5.73l-.09.36h15.61l-.09-.36c-.85-3.48-3.9-5.73-7.78-5.73Z"/>
    <path d="M208.88,64.5V20.53h8.96v3.66h.44l.17-.11c2.41-3.06,5.93-4.68,10.2-4.68,9.26,0,15.99,7.53,15.99,17.91,0,9.83-6.87,17.25-15.99,17.25-4.04,0-7.21-1.27-9.7-3.9l-.51-.53v14.38h-9.56ZM226.49,28.29c-4.75,0-8.47,3.83-8.47,8.71s3.75,8.65,8.53,8.65,8.53-3.8,8.53-8.65-3.77-8.71-8.59-8.71Z"/>
    <path d="M264.25,54.49c-9.61,0-17.43-7.9-17.43-17.61s7.58-17.49,17.25-17.49c8.6,0,15.6,5.44,17.5,13.57h-9.7c-1.49-3.08-4.09-4.68-7.56-4.68-4.49,0-7.87,3.72-7.87,8.65s3.41,8.65,8.11,8.65c3.33,0,5.72-1.45,7.31-4.44h9.76c-2.01,7.99-8.96,13.33-17.37,13.33Z"/>
    <path d="M301.67,54.47c-10.11,0-17.73-7.52-17.73-17.49s7.62-17.49,17.73-17.49,17.73,7.47,17.73,17.37-7.62,17.61-17.73,17.61ZM301.61,28.39c-4.47,0-8.11,3.85-8.11,8.59s3.66,8.59,8.17,8.59,8.17-3.77,8.17-8.59-3.69-8.59-8.23-8.59Z"/>
    <path d="M343.85,53.45v-18.26c0-4.63-1.72-6.79-5.41-6.79-4.02,0-5.89,2.2-5.89,6.91v18.14h-9.56V20.58h8.9v3.54h.46l.11-.14c1.87-3.13,4.59-4.53,8.8-4.53,2.85,0,12.15.94,12.15,12.99v21.02h-9.56Z"/>
  </g>
</svg>