<svg width="128" height="24" viewBox="0 0 128 24" fill="none" xmlns="http://www.w3.org/2000/svg">
<path d="M124.272 10.3989V0.833501C124.272 0.604178 124.338 0.410135 124.471 0.251373C124.613 0.0837911 124.785 0 124.988 0H126.832C127.036 0 127.204 0.0837911 127.337 0.251373C127.469 0.410135 127.536 0.604178 127.536 0.833501V17.7946C127.536 19.5762 127.677 21.0536 127.96 22.2267C127.987 22.3502 128 22.5089 128 22.703C128 22.8882 127.916 23.0602 127.748 23.219C127.589 23.3777 127.381 23.4571 127.124 23.4571H126.474C125.952 23.4571 125.603 23.2454 125.426 22.822C125.196 22.284 125.006 21.574 124.856 20.692C124.175 22.1297 123.03 23.0866 121.42 23.5629C120.889 23.7129 120.226 23.7878 119.43 23.7878C118.643 23.7878 117.856 23.585 117.069 23.1793C116.291 22.7735 115.627 22.2223 115.079 21.5255C113.956 20.079 113.394 18.2797 113.394 16.1276C113.394 13.9049 113.938 12.0615 115.026 10.5974C116.202 9.00093 117.772 8.20271 119.735 8.20271C121.699 8.20271 123.211 8.93478 124.272 10.3989ZM116.79 16.2202C116.79 16.82 116.861 17.4065 117.002 17.9798C117.153 18.5531 117.378 19.0647 117.679 19.5145C118.351 20.5376 119.28 21.0492 120.465 21.0492C121.544 21.0492 122.49 20.5817 123.304 19.6468C124.17 18.6766 124.604 17.53 124.604 16.207C124.604 14.6017 124.184 13.314 123.344 12.3437C122.539 11.4176 121.548 10.9546 120.372 10.9546C119.143 10.9546 118.21 11.5323 117.573 12.6877C117.051 13.6579 116.79 14.8354 116.79 16.2202Z" fill="#0E0E0A"/>
<path d="M96.2682 9.4859C96.2682 8.85085 96.5733 8.53333 97.1835 8.53333H97.9132C98.4084 8.53333 98.7445 8.71855 98.9214 9.089C99.169 9.6182 99.3812 10.315 99.5581 11.1794C100.354 9.73287 101.539 8.80675 103.113 8.40103C103.609 8.26873 104.223 8.20258 104.957 8.20258C105.7 8.20258 106.386 8.36134 107.014 8.67886C107.641 8.98757 108.137 9.41534 108.499 9.96219C109.171 10.9589 109.507 12.4274 109.507 14.3678V22.5838C109.507 22.8307 109.428 23.038 109.269 23.2056C109.11 23.3732 108.875 23.457 108.566 23.457H107.266C106.929 23.457 106.682 23.3732 106.523 23.2056C106.363 23.038 106.284 22.8307 106.284 22.5838V14.3546C106.284 12.0967 105.453 10.9677 103.79 10.9677C102.817 10.9677 101.928 11.3734 101.123 12.1849C100.266 13.058 99.8367 14.0724 99.8367 15.2278V22.5838C99.8367 22.8307 99.7615 23.038 99.6112 23.2056C99.4608 23.3732 99.2309 23.457 98.9214 23.457H97.555C97.2454 23.457 97.0111 23.3732 96.8519 23.2056C96.6927 23.038 96.6131 22.8307 96.6131 22.5838V14.4604C96.6131 12.6876 96.5556 11.4528 96.4406 10.756C96.3257 10.0504 96.2682 9.62702 96.2682 9.4859Z" fill="#0E0E0A"/>
<path d="M92.4335 22.7558C92.4335 23.2232 92.2035 23.457 91.7436 23.457H90.4569C90.1119 23.457 89.9041 23.3908 89.8334 23.2585C89.7626 23.1174 89.7228 22.9939 89.714 22.8881C89.7051 22.7734 89.6874 22.6367 89.6609 22.4779C89.6078 22.0457 89.5327 21.5783 89.4354 21.0755C88.7456 22.3368 87.6622 23.1703 86.1853 23.576C85.6635 23.7172 85.0886 23.7877 84.4607 23.7877C83.8328 23.7877 83.2049 23.6819 82.577 23.4702C81.949 23.2673 81.3919 22.963 80.9055 22.5573C79.8088 21.64 79.2605 20.4361 79.2605 18.9455C79.2605 17.3138 79.8619 16.0657 81.0646 15.2013C82.0552 14.5045 83.3287 14.1562 84.8852 14.1562C86.4417 14.1562 87.7595 14.6104 88.8384 15.5189C88.865 15.219 88.8782 14.8441 88.8782 14.3943C88.8782 13.9445 88.7898 13.4946 88.6129 13.0448C88.436 12.595 88.184 12.2201 87.8568 11.9203C87.1846 11.3293 86.2472 11.0338 85.0444 11.0338C83.9654 11.0338 82.8688 11.3293 81.7545 11.9203C81.5422 12.0349 81.3565 12.0922 81.1973 12.0922C80.9585 12.0922 80.7286 11.8585 80.5075 11.391C80.2687 10.9148 80.1493 10.5708 80.1493 10.3591C80.1493 9.97101 80.4412 9.59615 81.0249 9.23453C82.1392 8.54656 83.6294 8.20258 85.4954 8.20258C87.1935 8.20258 88.5996 8.66563 89.714 9.59174C91.0317 10.7031 91.6906 12.2731 91.6906 14.3017C91.6906 15.2013 91.5446 16.3347 91.2528 17.7018C92.0045 19.8363 92.3981 21.5209 92.4335 22.7558ZM83.5454 17.1462C83.1828 17.4108 82.9219 17.6754 82.7627 17.94C82.6123 18.2046 82.5372 18.5177 82.5372 18.8793C82.5372 19.2321 82.5991 19.5497 82.7229 19.8319C82.8555 20.1053 83.0368 20.3346 83.2668 20.5199C83.7532 20.8991 84.2971 21.0888 84.8985 21.0888C85.5087 21.0888 86.0084 21.0182 86.3975 20.8771C86.7866 20.736 87.1227 20.5551 87.4057 20.3346C88.0159 19.8584 88.3211 19.3556 88.3211 18.8264C88.268 18.1649 87.901 17.6445 87.22 17.2652C86.6098 16.9124 85.889 16.736 85.0577 16.736C84.4121 16.736 83.908 16.8727 83.5454 17.1462Z" fill="#0E0E0A"/>
<path d="M63.3284 23.4571C62.7978 23.4571 62.5325 23.1175 62.5325 22.4384V0.859961C62.5325 0.621818 62.5988 0.418955 62.7315 0.251373C62.8641 0.0837911 63.0321 0 63.2356 0H65.0397C65.2431 0 65.4112 0.0837911 65.5438 0.251373C65.6853 0.418955 65.7561 0.621818 65.7561 0.859961V10.5312C66.8881 8.97888 68.5065 8.20271 70.6114 8.20271C72.5393 8.20271 74.0162 8.91273 75.0421 10.3328C75.9707 11.6205 76.4351 13.336 76.4351 15.4793C76.4351 17.9842 75.8292 19.9996 74.6176 21.5255C73.4237 23.0249 71.9114 23.7746 70.0807 23.7746C69.0902 23.7746 68.1704 23.5541 67.3214 23.1131C66.4813 22.6633 65.8003 21.9797 65.2785 21.0624C65.2608 21.3359 65.2343 21.6049 65.1989 21.8695C65.1724 22.1341 65.1547 22.3899 65.1458 22.6368C65.1105 23.1837 64.7523 23.4571 64.0713 23.4571H63.3284ZM66.6847 12.4364C66.3221 12.8862 66.0435 13.4154 65.8489 14.024C65.6544 14.6237 65.5571 15.2544 65.5571 15.9159C65.5571 16.5686 65.6544 17.2036 65.8489 17.821C66.0435 18.4296 66.3132 18.9765 66.6581 19.4616C67.4187 20.52 68.3606 21.0492 69.4838 21.0492C70.7396 21.0492 71.6815 20.5024 72.3094 19.4087C72.8223 18.5002 73.0788 17.3271 73.0788 15.8894C73.0788 13.5168 72.4686 11.9909 71.2481 11.3118C70.8236 11.0737 70.3062 10.9546 69.696 10.9546C69.0858 10.9546 68.5242 11.0869 68.0113 11.3515C67.4983 11.6161 67.0561 11.9777 66.6847 12.4364Z" fill="#0E0E0A"/>
<path d="M50.6201 9.4859C50.6201 8.85085 50.8987 8.53333 51.4559 8.53333H52.1722C52.6586 8.53333 53.0035 8.74501 53.207 9.16838C53.4988 9.78579 53.7111 10.6369 53.8437 11.7218C53.8437 11.7394 53.8481 11.7483 53.857 11.7483C53.8747 11.7483 53.9056 11.5983 53.9498 11.2984C53.9941 10.9986 54.1223 10.6325 54.3345 10.2003C54.5468 9.75933 54.8077 9.38888 55.1172 9.089C55.7451 8.49805 56.5146 8.20258 57.4255 8.20258C58.4425 8.20258 59.15 8.37016 59.548 8.70532C59.7337 8.85526 59.8089 9.06254 59.7735 9.32714L59.5613 10.9941C59.5082 11.444 59.2783 11.6689 58.8715 11.6689C58.6769 11.6689 58.4381 11.6292 58.1551 11.5498C57.6068 11.4087 57.1734 11.3381 56.8551 11.3381C56.5367 11.3381 56.2006 11.4792 55.8469 11.7615C55.4931 12.0349 55.188 12.3789 54.9315 12.7934C54.4097 13.6578 54.1488 14.5795 54.1488 15.5586V22.5838C54.1488 22.8307 54.0781 23.038 53.9366 23.2056C53.7951 23.3732 53.5917 23.457 53.3263 23.457H51.7875C51.5045 23.457 51.2878 23.3732 51.1375 23.2056C50.996 23.038 50.9252 22.8307 50.9252 22.5838V13.4682C50.9252 11.9158 50.8722 10.8927 50.766 10.3988C50.6688 9.89604 50.6201 9.59174 50.6201 9.4859Z" fill="#0E0E0A"/>
<path d="M37.3147 16.7236L37.3015 16.975C37.3015 18.1833 37.6862 19.1535 38.4556 19.8856C39.2604 20.6618 40.3526 21.0498 41.7323 21.0498C42.9881 21.0498 44.1555 20.675 45.2344 19.9253C45.4378 19.7842 45.6191 19.7136 45.7783 19.7136C46.1056 19.7136 46.3532 19.8768 46.5212 20.2031L46.8794 20.944C46.959 21.1204 46.9988 21.31 46.9988 21.5129C46.9988 21.7158 46.9059 21.9275 46.7202 22.148C46.5433 22.3596 46.309 22.5537 46.0171 22.7301C45.7253 22.9065 45.3848 23.0608 44.9956 23.1931C44.6154 23.3254 44.2218 23.4357 43.815 23.5239C43.0014 23.7003 42.1523 23.7885 41.2679 23.7885C40.3836 23.7885 39.4903 23.6209 38.5883 23.2857C37.695 22.9506 36.9212 22.4611 36.2667 21.8172C34.8606 20.4501 34.1575 18.6023 34.1575 16.2738C34.1575 12.19 35.599 9.64985 38.4821 8.65318C39.3842 8.34448 40.3084 8.19012 41.2547 8.19012C42.2098 8.19012 43.019 8.29156 43.6823 8.49442C44.3545 8.69728 44.9337 8.99716 45.4202 9.39407C46.446 10.232 46.959 11.4006 46.959 12.9001C46.959 14.373 46.3576 15.4976 45.1548 16.2738C44.1024 16.9529 42.7139 17.2925 40.9894 17.2925C39.9281 17.2925 38.7032 17.1028 37.3147 16.7236ZM43.8415 12.8604C43.8415 11.5991 42.9925 10.9685 41.2945 10.9685C39.6761 10.9685 38.544 11.5594 37.8984 12.7413C37.6685 13.1558 37.5181 13.6674 37.4474 14.276C38.208 14.6553 39.1764 14.8449 40.3526 14.8449C42.6785 14.8449 43.8415 14.1834 43.8415 12.8604Z" fill="#0E0E0A"/>
<path d="M25.6543 21.0755C27.3523 21.0755 28.2013 20.5066 28.2013 19.3688C28.2013 18.7426 27.7193 18.2134 26.7553 17.7812C26.3485 17.596 25.9019 17.424 25.4155 17.2652C24.9379 17.1065 24.478 16.9168 24.0358 16.6963C23.5936 16.4758 23.178 16.2377 22.7888 15.9819C22.4085 15.7173 22.0769 15.4174 21.7939 15.0823C21.2102 14.3767 20.9184 13.4814 20.9184 12.3965C20.9184 11.0735 21.4711 10.0239 22.5766 9.24776C23.5583 8.55097 24.7654 8.20258 26.1982 8.20258C27.737 8.20258 29.0238 8.50246 30.0585 9.10223C30.4123 9.31391 30.5891 9.55646 30.5891 9.82989C30.5891 10.218 30.483 10.6457 30.2708 11.1132C30.0673 11.5719 29.8241 11.8012 29.5411 11.8012C29.267 11.8012 29.0149 11.7439 28.785 11.6292C28.5639 11.5145 28.3605 11.4175 28.1748 11.3381C27.9979 11.2499 27.8077 11.1794 27.6043 11.1264C27.1621 10.9941 26.7509 10.928 26.3706 10.928C25.9992 10.928 25.6985 10.9545 25.4685 11.0074C25.2386 11.0603 25.0308 11.1441 24.845 11.2587C24.394 11.5322 24.1685 11.8673 24.1685 12.2642C24.1685 12.6611 24.2569 12.9654 24.4338 13.1771C24.6195 13.3888 24.8716 13.5828 25.1899 13.7592C25.5083 13.9356 25.8886 14.1121 26.3308 14.2885L27.7635 14.8838C28.9221 15.3866 29.7048 15.8408 30.1116 16.2465C30.9075 17.058 31.3055 17.9973 31.3055 19.0645C31.3055 20.4052 30.8456 21.5077 29.9258 22.3721C28.9088 23.3158 27.4628 23.7877 25.5879 23.7877C23.6865 23.7877 22.2582 23.4217 21.3031 22.6896C20.8343 22.3368 20.6 22.0193 20.6 21.737C20.6 21.4548 20.6486 21.2034 20.7459 20.9829C20.852 20.7536 20.9847 20.489 21.1439 20.1891C21.3119 19.8804 21.533 19.7261 21.8072 19.7261C22.0902 19.7261 22.3864 19.8539 22.696 20.1097C23.0144 20.3567 23.4477 20.5816 23.996 20.7845C24.5443 20.9785 25.0971 21.0755 25.6543 21.0755Z" fill="#0E0E0A"/>
<path d="M4.15189 7.5154C4.64 7.41471 5.14277 7.60393 5.4527 8.00348C5.76167 8.40255 5.8299 8.94639 5.62915 9.41255C4.08727 12.9925 3.31595 16.0847 3.44461 18.2286C3.50787 19.2793 3.77864 19.9771 4.15189 20.4148C4.50529 20.829 5.08023 21.1644 6.07977 21.2414C8.0541 21.3934 9.41273 20.7347 10.4707 19.6348C10.2567 18.4074 10.2218 17.0043 10.3118 15.685C10.4563 13.5661 10.9535 11.2266 11.9276 9.7176C12.4173 8.95934 13.0686 8.33347 13.8802 8.10953C14.7724 7.86364 15.6235 8.17081 16.196 8.81551C16.4614 9.11452 16.6158 9.59284 16.6918 10.1563C16.7682 10.7224 16.7672 11.3865 16.7123 12.068C16.6024 13.4305 16.2766 14.8763 15.9131 15.7722C15.1743 17.5929 14.8587 18.2235 13.4034 20.2856C13.4079 20.2973 13.4125 20.3085 13.4165 20.319C13.4249 20.3411 13.4314 20.3611 13.4398 20.3785C13.5753 20.6571 13.8868 20.8819 14.3761 20.9451C14.6114 20.9753 14.8369 20.9571 15.0133 20.9116C15.1075 20.8874 15.1686 20.8612 15.2029 20.8434C15.2199 20.8345 15.2309 20.8267 15.2365 20.823L15.2379 20.8216L16.1158 19.9151L16.145 19.8963C16.6464 19.7235 17.1968 19.9619 17.5741 20.3509C17.9515 20.7403 18.1794 21.3044 18.0131 21.8195C18.0096 21.8304 18.0035 21.8404 17.9956 21.8486L17.1104 22.7638C16.3199 23.5795 15.0543 23.7916 14.045 23.6615C13.1862 23.5506 12.2136 23.1555 11.5251 22.3207C10.0998 23.4617 8.2679 24.1546 5.88144 23.9709C4.34408 23.8525 3.06171 23.2829 2.15547 22.2205C1.26901 21.1809 0.877918 19.8264 0.79196 18.3986C0.659624 16.1975 1.23424 13.5249 2.25172 10.6967L0.952373 10.9654L0.93779 10.9698V10.9669C0.740373 10.9669 0.560254 10.8161 0.418634 10.6168C0.273991 10.4131 0.15414 10.139 0.0803076 9.84979C0.0064553 9.56049 -0.0224415 9.25073 0.0190588 8.9753C0.0605697 8.70014 0.174232 8.45109 0.393843 8.29837L0.421551 8.28675L4.15189 7.5154ZM15.2219 20.8419C15.2219 20.8419 15.2191 20.8457 15.2175 20.8492L15.2262 20.8361L15.2219 20.8419ZM14.3717 10.8971C14.2928 10.8994 14.1896 10.9564 14.0669 11.0918C13.9457 11.2256 13.8169 11.4225 13.6877 11.67C13.4299 12.164 13.1759 12.8498 12.9732 13.6136C12.5821 15.0875 12.3914 16.8311 12.7223 18.0354C12.7908 17.9345 12.8677 17.7941 12.9484 17.6171C13.0642 17.3628 13.1879 17.0418 13.3115 16.6787C13.5585 15.9527 13.8068 15.0598 14.01 14.1917C14.2134 13.3231 14.3707 12.4812 14.4344 11.8573C14.4662 11.5449 14.4746 11.2916 14.4548 11.1179C14.4449 11.0309 14.4288 10.9703 14.4096 10.9335C14.3916 10.8993 14.3775 10.8973 14.3717 10.8971Z" fill="#0E0E0A"/>
</svg>
