<svg xmlns="http://www.w3.org/2000/svg" width="28" height="28" viewBox="0 0 28 28">
    <path fill="#65676A" fill-rule="evenodd" d="M15.09 3.5c1.89.004 2.29.019 3.25.063 1.118.051 1.88.228 2.548.489a5.13 5.13 0 011.86 1.21 5.146 5.146 0 011.212 1.86c.259.668.436 1.43.488 2.548.045 1 .06 1.393.062 3.495v1.67c-.002 2.103-.017 2.494-.062 3.494-.052 1.118-.23 1.882-.488 2.55a5.146 5.146 0 01-1.211 1.86 5.16 5.16 0 01-1.86 1.21c-.668.26-1.431.438-2.549.489-1 .045-1.393.059-3.495.061h-1.669c-2.102-.002-2.495-.016-3.495-.061-1.118-.051-1.88-.23-2.548-.489a5.146 5.146 0 01-1.86-1.21 5.15 5.15 0 01-1.212-1.86c-.259-.668-.436-1.432-.487-2.55-.043-.96-.059-1.36-.063-3.25v-2.158c.004-1.89.02-2.29.063-3.25.051-1.118.228-1.881.487-2.549a5.15 5.15 0 011.212-1.86 5.116 5.116 0 011.86-1.21c.667-.26 1.43-.438 2.548-.49.96-.043 1.36-.058 3.25-.061zm-.788 1.891h-.582c-2.538 0-2.885.013-3.953.062-1.023.046-1.58.218-1.949.361a3.24 3.24 0 00-1.206.787 3.234 3.234 0 00-.787 1.207c-.143.369-.315.925-.361 1.95-.043.949-.057 1.328-.06 3.182v2.12c.003 1.855.017 2.234.06 3.183.046 1.024.218 1.58.361 1.95.19.49.42.84.787 1.207.366.367.716.595 1.206.785.37.145.926.315 1.95.362.988.045 1.359.058 3.423.06h1.64c2.064-.002 2.434-.015 3.423-.06 1.023-.047 1.58-.217 1.95-.362.49-.19.84-.418 1.207-.785a3.25 3.25 0 00.785-1.208c.143-.37.315-.925.362-1.95.044-.988.059-1.358.061-3.422v-1.64c-.002-2.064-.017-2.434-.061-3.422-.047-1.025-.219-1.581-.362-1.95a3.231 3.231 0 00-.785-1.207 3.253 3.253 0 00-1.208-.787c-.37-.143-.926-.315-1.95-.361-1.106-.05-1.439-.062-4.242-.062zm-.291 3.217a5.393 5.393 0 110 10.785 5.393 5.393 0 010-10.785zm0 1.892a3.5 3.5 0 100 7 3.5 3.5 0 000-7zm5.605-3.365a1.26 1.26 0 11-.002 2.52 1.26 1.26 0 01.002-2.52z"/>
</svg>
